<?xml version="1.0" encoding="utf-8" ?>
<!DOCTYPE svg PUBLIC "-//W3C//DTD SVG 1.1//EN" "http://www.w3.org/Graphics/SVG/1.1/DTD/svg11.dtd">
<svg height="444" version="1.1" width="372" xmlns="http://www.w3.org/2000/svg">
<polygon fill="#ffffff" points="14,14 308,14 308,38 357,38 357,429 14,429 14,14" stroke="#ffffff" stroke-width="1"/>
<rect fill="none" height="24" stroke="#000000" stroke-width="1" width="294" x="14" y="14"/>
<text font-family="Lucida Grande" font-size="13" x="19" y="28">
search.neigh</text>
<rect fill="none" height="391" stroke="#000000" stroke-width="1" width="343" x="14" y="38"/>
<rect fill="#ffffff" height="88" stroke="#ffffff" stroke-width="1" width="176" x="98" y="174"/>
<rect fill="none" height="88" stroke="#000000" stroke-width="1" width="176" x="98" y="174"/>
<text font-family="Lucida Grande" font-size="13" x="103" y="188">
CompositeNeighbourhood</text>
<rect fill="#000000" height="1" stroke="#000000" stroke-width="1" width="176" x="98" y="198"/>
<text font-family="Lucida Grande" font-size="13" x="102" y="213">
neighs : List</text>
<text font-family="Lucida Grande" font-size="13" x="102" y="230">
weights : List</text>
<rect fill="#000000" height="1" stroke="#000000" stroke-width="1" width="176" x="98" y="240"/>
<rect fill="#ffffff" height="66" stroke="#ffffff" stroke-width="1" width="108" x="132" y="62"/>
<rect fill="none" height="66" stroke="#000000" stroke-width="1" width="108" x="132" y="62"/>
<text font-family="Lucida Grande" font-size="13" x="137" y="96">
Neighbourhood</text>
<text font-family="Lucida Grande" font-size="13" x="138" y="77">
&lt;&lt;interface&gt;&gt;</text>
<rect fill="#000000" height="1" stroke="#000000" stroke-width="1" width="108" x="132" y="106"/>
<line fill="#000000" stroke="#000000" stroke-width="1" x1="188" x2="188" y1="174" y2="169"/>
<line fill="#000000" stroke="#000000" stroke-width="1" x1="188" x2="188" y1="164" y2="159"/>
<line fill="#000000" stroke="#000000" stroke-width="1" x1="188" x2="188" y1="154" y2="149"/>
<line fill="#000000" stroke="#000000" stroke-width="1" x1="188" x2="188" y1="144" y2="139"/>
<line fill="#000000" stroke="#000000" stroke-width="1" x1="188" x2="188" y1="134" y2="129"/>
<polygon fill="#ffffff" points="188,127 195,139 181,139" stroke="#ffffff" stroke-width="1"/>
<polygon fill="none" points="188,127 195,139 181,139" stroke="#000000" stroke-width="1"/>
<polygon fill="#ffffff" points="41,286 321,286 331,296 331,403 41,403 41,286" stroke="#ffffff" stroke-width="1"/>
<polyline fill="none" points="41,286 321,286 331,296 331,403 41,403 41,286" stroke="#000000" stroke-width="1"/>
<polygon fill="#b2b2b2" points="321,286 331,296 321,296 321,286" stroke="#b2b2b2" stroke-width="1"/>
<polyline fill="none" points="321,286 331,296 321,296 321,286" stroke="#000000" stroke-width="1"/>
<text font-family="Lucida Grande" font-size="13" x="44" y="302">
A composite neighbourhood samples</text>
<text font-family="Lucida Grande" font-size="13" x="44" y="318">
random moves from a randomly selected</text>
<text font-family="Lucida Grande" font-size="13" x="44" y="334">
contained neighbourhood, according to</text>
<text font-family="Lucida Grande" font-size="13" x="44" y="350">
the assigned weights. When all moves</text>
<text font-family="Lucida Grande" font-size="13" x="44" y="366">
are requested, the union of all moves</text>
<text font-family="Lucida Grande" font-size="13" x="44" y="382">
generated by all contained neighbourhoods</text>
<text font-family="Lucida Grande" font-size="13" x="44" y="398">
is returned.</text>
<line fill="#000000" stroke="#000000" stroke-width="1" x1="189" x2="189" y1="286" y2="281"/>
<line fill="#000000" stroke="#000000" stroke-width="1" x1="189" x2="189" y1="276" y2="271"/>
<line fill="#000000" stroke="#000000" stroke-width="1" x1="189" x2="189" y1="266" y2="261"/>
</svg>
