<?xml version="1.0" encoding="utf-8" ?>
<!DOCTYPE svg PUBLIC "-//W3C//DTD SVG 1.1//EN" "http://www.w3.org/Graphics/SVG/1.1/DTD/svg11.dtd">
<svg height="372" version="1.1" width="716" xmlns="http://www.w3.org/2000/svg">
<polygon fill="#ffffff" points="14,14 652,14 652,38 701,38 701,357 14,357 14,14" stroke="#ffffff" stroke-width="1"/>
<rect fill="none" height="24" stroke="#000000" stroke-width="1" width="638" x="14" y="14"/>
<text font-family="Lucida Grande" font-size="13" x="19" y="28">
problems.objectives</text>
<rect fill="none" height="319" stroke="#000000" stroke-width="1" width="687" x="14" y="38"/>
<rect fill="#ffffff" height="92" stroke="#ffffff" stroke-width="1" width="244" x="45" y="162"/>
<rect fill="none" height="92" stroke="#000000" stroke-width="1" width="244" x="45" y="162"/>
<text font-family="Lucida Grande" font-size="13" x="120" y="176">
WeightedIndex</text>
<rect fill="#000000" height="1" stroke="#000000" stroke-width="1" width="244" x="45" y="186"/>
<text font-family="Lucida Grande" font-size="13" x="49" y="201">
objectives : Map</text>
<rect fill="#000000" height="1" stroke="#000000" stroke-width="1" width="244" x="45" y="211"/>
<text font-family="Lucida Grande" font-size="13" x="49" y="226">
addObjective(Objective,double) : void</text>
<text font-family="Lucida Grande" font-size="13" x="49" y="243">
removeObjective(Objective) : boolean</text>
<polygon fill="#ffffff" points="36,278 287,278 297,288 297,333 36,333 36,278" stroke="#ffffff" stroke-width="1"/>
<polyline fill="none" points="36,278 287,278 297,288 297,333 36,333 36,278" stroke="#000000" stroke-width="1"/>
<polygon fill="#ffffff" points="287,278 297,288 287,288 287,278" stroke="#ffffff" stroke-width="1"/>
<polyline fill="none" points="287,278 297,288 287,288 287,278" stroke="#000000" stroke-width="1"/>
<text font-family="Lucida Grande" font-size="13" x="39" y="294">
a weighted index is always maximized,</text>
<text font-family="Lucida Grande" font-size="13" x="39" y="310">
the sign of contained minimizing</text>
<text font-family="Lucida Grande" font-size="13" x="39" y="326">
objectives is flipped</text>
<line fill="#000000" stroke="#000000" stroke-width="1" x1="166" x2="166" y1="278" y2="273"/>
<line fill="#000000" stroke="#000000" stroke-width="1" x1="166" x2="166" y1="268" y2="263"/>
<line fill="#000000" stroke="#000000" stroke-width="1" x1="166" x2="166" y1="258" y2="253"/>
<rect fill="#ffffff" height="66" stroke="#ffffff" stroke-width="1" width="104" x="115" y="62"/>
<rect fill="none" height="66" stroke="#000000" stroke-width="1" width="104" x="115" y="62"/>
<text font-family="Lucida Grande" font-size="13" x="137" y="96">
Objective</text>
<text font-family="Lucida Grande" font-size="13" x="119" y="77">
&lt;&lt;interface&gt;&gt;</text>
<rect fill="#000000" height="1" stroke="#000000" stroke-width="1" width="104" x="115" y="106"/>
<line fill="#000000" stroke="#000000" stroke-width="1" x1="166" x2="166" y1="162" y2="157"/>
<line fill="#000000" stroke="#000000" stroke-width="1" x1="166" x2="166" y1="152" y2="147"/>
<line fill="#000000" stroke="#000000" stroke-width="1" x1="166" x2="166" y1="142" y2="137"/>
<line fill="#000000" stroke="#000000" stroke-width="1" x1="166" x2="166" y1="132" y2="127"/>
<polygon fill="#ffffff" points="166,127 173,139 159,139" stroke="#ffffff" stroke-width="1"/>
<polygon fill="none" points="166,127 173,139 159,139" stroke="#000000" stroke-width="1"/>
<rect fill="#ffffff" height="92" stroke="#ffffff" stroke-width="1" width="320" x="358" y="162"/>
<rect fill="none" height="92" stroke="#000000" stroke-width="1" width="320" x="358" y="162"/>
<text font-family="Lucida Grande" font-size="13" x="439" y="176">
WeightedIndexEvaluation</text>
<rect fill="#000000" height="1" stroke="#000000" stroke-width="1" width="320" x="358" y="186"/>
<text font-family="Lucida Grande" font-size="13" x="362" y="201">
evaluations : Map</text>
<rect fill="#000000" height="1" stroke="#000000" stroke-width="1" width="320" x="358" y="211"/>
<text font-family="Lucida Grande" font-size="13" x="362" y="226">
addEvaluation(Objective,Evaluation,double) : void</text>
<text font-family="Lucida Grande" font-size="13" x="362" y="243">
getEvaluation(Objective) : Evaluation</text>
<rect fill="#ffffff" height="66" stroke="#ffffff" stroke-width="1" width="104" x="465" y="62"/>
<rect fill="none" height="66" stroke="#000000" stroke-width="1" width="104" x="465" y="62"/>
<text font-family="Lucida Grande" font-size="13" x="484" y="96">
Evaluation</text>
<text font-family="Lucida Grande" font-size="13" x="469" y="77">
&lt;&lt;interface&gt;&gt;</text>
<rect fill="#000000" height="1" stroke="#000000" stroke-width="1" width="104" x="465" y="106"/>
<line fill="#000000" stroke="#000000" stroke-width="1" x1="520" x2="520" y1="162" y2="157"/>
<line fill="#000000" stroke="#000000" stroke-width="1" x1="520" x2="520" y1="152" y2="147"/>
<line fill="#000000" stroke="#000000" stroke-width="1" x1="520" x2="520" y1="142" y2="137"/>
<line fill="#000000" stroke="#000000" stroke-width="1" x1="520" x2="520" y1="132" y2="127"/>
<polygon fill="#ffffff" points="520,127 527,139 513,139" stroke="#ffffff" stroke-width="1"/>
<polygon fill="none" points="520,127 527,139 513,139" stroke="#000000" stroke-width="1"/>
<polyline fill="none" points="288,206 358,206" stroke="#000000" stroke-width="1"/>
<line fill="#000000" stroke="#000000" stroke-width="1" x1="346" x2="358" y1="213" y2="206"/>
<line fill="#000000" stroke="#000000" stroke-width="1" x1="346" x2="358" y1="199" y2="206"/>
</svg>
