<?xml version="1.0" encoding="utf-8" ?>
<!DOCTYPE svg PUBLIC "-//W3C//DTD SVG 1.1//EN" "http://www.w3.org/Graphics/SVG/1.1/DTD/svg11.dtd">
<svg height="604" version="1.1" width="741" xmlns="http://www.w3.org/2000/svg">
<polygon fill="#ffffff" points="14,14 677,14 677,38 726,38 726,589 14,589 14,14" stroke="#ffffff" stroke-width="1"/>
<rect fill="none" height="24" stroke="#000000" stroke-width="1" width="663" x="14" y="14"/>
<text font-family="Lucida Grande" font-size="13" x="19" y="28">
search.algo</text>
<rect fill="none" height="551" stroke="#000000" stroke-width="1" width="712" x="14" y="38"/>
<rect fill="#ffffff" height="67" stroke="#ffffff" stroke-width="1" width="152" x="208" y="168"/>
<rect fill="none" height="67" stroke="#000000" stroke-width="1" width="152" x="208" y="168"/>
<text font-family="Lucida Grande" font-size="13" x="225" y="182">
+ SteepestDescent</text>
<rect fill="#000000" height="1" stroke="#000000" stroke-width="1" width="152" x="208" y="192"/>
<rect fill="#000000" height="1" stroke="#000000" stroke-width="1" width="152" x="208" y="213"/>
<rect fill="#ffffff" height="67" stroke="#ffffff" stroke-width="1" width="120" x="224" y="496"/>
<rect fill="none" height="67" stroke="#000000" stroke-width="1" width="120" x="224" y="496"/>
<text font-family="Lucida Grande" font-size="13" x="241" y="510">
+ TabuSearch</text>
<rect fill="#000000" height="1" stroke="#000000" stroke-width="1" width="120" x="224" y="520"/>
<rect fill="#000000" height="1" stroke="#000000" stroke-width="1" width="120" x="224" y="541"/>
<rect fill="#ffffff" height="67" stroke="#ffffff" stroke-width="1" width="216" x="439" y="168"/>
<rect fill="none" height="67" stroke="#000000" stroke-width="1" width="216" x="439" y="168"/>
<text font-family="Lucida Grande" font-size="13" x="445" y="182">
+ VariableNeighbourhoodSearch</text>
<rect fill="#000000" height="1" stroke="#000000" stroke-width="1" width="216" x="439" y="192"/>
<rect fill="#000000" height="1" stroke="#000000" stroke-width="1" width="216" x="439" y="213"/>
<rect fill="#ffffff" height="68" stroke="#ffffff" stroke-width="1" width="133" x="218" y="279"/>
<rect fill="none" height="68" stroke="#000000" stroke-width="1" width="133" x="218" y="279"/>
<text font-family="Lucida Grande" font-size="13" x="223" y="293">
+ MetropolisSearch</text>
<rect fill="#000000" height="1" stroke="#000000" stroke-width="1" width="133" x="218" y="303"/>
<rect fill="#000000" height="1" stroke="#000000" stroke-width="1" width="133" x="218" y="324"/>
<rect fill="#ffffff" height="67" stroke="#ffffff" stroke-width="1" width="144" x="212" y="59"/>
<rect fill="none" height="67" stroke="#000000" stroke-width="1" width="144" x="212" y="59"/>
<text font-family="Lucida Grande" font-size="13" x="226" y="73">
+ RandomDescent</text>
<rect fill="#000000" height="1" stroke="#000000" stroke-width="1" width="144" x="212" y="83"/>
<rect fill="#000000" height="1" stroke="#000000" stroke-width="1" width="144" x="212" y="104"/>
<rect fill="#ffffff" height="67" stroke="#ffffff" stroke-width="1" width="143" x="29" y="496"/>
<rect fill="none" height="67" stroke="#000000" stroke-width="1" width="143" x="29" y="496"/>
<text font-family="Lucida Grande" font-size="13" x="34" y="510">
+ BasicParallelSearch</text>
<rect fill="#000000" height="1" stroke="#000000" stroke-width="1" width="143" x="29" y="520"/>
<rect fill="#000000" height="1" stroke="#000000" stroke-width="1" width="143" x="29" y="541"/>
<rect fill="#ffffff" height="67" stroke="#ffffff" stroke-width="1" width="138" x="216" y="378"/>
<rect fill="none" height="67" stroke="#000000" stroke-width="1" width="138" x="216" y="378"/>
<text font-family="Lucida Grande" font-size="13" x="222" y="392">
+ ParallelTempering</text>
<rect fill="#000000" height="1" stroke="#000000" stroke-width="1" width="138" x="216" y="402"/>
<rect fill="#000000" height="1" stroke="#000000" stroke-width="1" width="138" x="216" y="423"/>
<polyline fill="none" points="286,378 286,346" stroke="#000000" stroke-width="1"/>
<line fill="#000000" stroke="#000000" stroke-width="1" x1="293" x2="286" y1="358" y2="346"/>
<line fill="#000000" stroke="#000000" stroke-width="1" x1="279" x2="286" y1="358" y2="346"/>
<text font-family="Lucida Grande" font-size="13" x="209" y="366">
 </text>
<rect fill="#ffffff" height="67" stroke="#ffffff" stroke-width="1" width="269" x="412" y="280"/>
<rect fill="none" height="67" stroke="#000000" stroke-width="1" width="269" x="412" y="280"/>
<text font-family="Lucida Grande" font-size="13" x="418" y="294">
+ ReducedVariableNeighbourhoodSearch</text>
<rect fill="#000000" height="1" stroke="#000000" stroke-width="1" width="269" x="412" y="304"/>
<rect fill="#000000" height="1" stroke="#000000" stroke-width="1" width="269" x="412" y="325"/>
<rect fill="#ffffff" height="87" stroke="#ffffff" stroke-width="1" width="149" x="26" y="158"/>
<rect fill="none" height="87" stroke="#000000" stroke-width="1" width="149" x="26" y="158"/>
<text font-family="Lucida Grande" font-size="13" x="44" y="192">
+ SolutionIterator</text>
<text font-family="Lucida Grande" font-size="13" x="53" y="173">
&lt;&lt;interface&gt;&gt;</text>
<rect fill="#000000" height="1" stroke="#000000" stroke-width="1" width="149" x="26" y="202"/>
<text font-family="Lucida Grande" font-size="13" font-style="italic" x="30" y="217">
+hasNext() : boolean</text>
<text font-family="Lucida Grande" font-size="13" font-style="italic" x="30" y="234">
+next() : SolutionType</text>
<rect fill="#ffffff" height="68" stroke="#ffffff" stroke-width="1" width="133" x="34" y="58"/>
<rect fill="none" height="68" stroke="#000000" stroke-width="1" width="133" x="34" y="58"/>
<text font-family="Lucida Grande" font-size="13" x="39" y="72">
+ ExhaustiveSearch</text>
<rect fill="#000000" height="1" stroke="#000000" stroke-width="1" width="133" x="34" y="82"/>
<rect fill="#000000" height="1" stroke="#000000" stroke-width="1" width="133" x="34" y="103"/>
<polyline fill="none" points="102,125 102,158" stroke="#000000" stroke-width="1"/>
<line fill="#000000" stroke="#000000" stroke-width="1" x1="95" x2="102" y1="146" y2="158"/>
<line fill="#000000" stroke="#000000" stroke-width="1" x1="109" x2="102" y1="146" y2="158"/>
<text font-family="Lucida Grande" font-size="13" x="118" y="146">
 </text>
<rect fill="#ffffff" height="67" stroke="#ffffff" stroke-width="1" width="128" x="36" y="280"/>
<rect fill="none" height="67" stroke="#000000" stroke-width="1" width="128" x="36" y="280"/>
<text font-family="Lucida Grande" font-size="13" x="44" y="294">
+ LRSubsetSearch</text>
<rect fill="#000000" height="1" stroke="#000000" stroke-width="1" width="128" x="36" y="304"/>
<rect fill="#000000" height="1" stroke="#000000" stroke-width="1" width="128" x="36" y="325"/>
<rect fill="#ffffff" height="68" stroke="#ffffff" stroke-width="1" width="225" x="434" y="58"/>
<rect fill="none" height="68" stroke="#000000" stroke-width="1" width="225" x="434" y="58"/>
<text font-family="Lucida Grande" font-size="13" x="440" y="72">
+ VariableNeighbourhoodDescent</text>
<rect fill="#000000" height="1" stroke="#000000" stroke-width="1" width="225" x="434" y="82"/>
<rect fill="#000000" height="1" stroke="#000000" stroke-width="1" width="225" x="434" y="103"/>
<rect fill="#ffffff" height="68" stroke="#ffffff" stroke-width="1" width="118" x="42" y="377"/>
<rect fill="none" height="68" stroke="#000000" stroke-width="1" width="118" x="42" y="377"/>
<text font-family="Lucida Grande" font-size="13" x="48" y="391">
+ RandomSearch</text>
<rect fill="#000000" height="1" stroke="#000000" stroke-width="1" width="118" x="42" y="401"/>
<rect fill="#000000" height="1" stroke="#000000" stroke-width="1" width="118" x="42" y="422"/>
<rect fill="#ffffff" height="68" stroke="#ffffff" stroke-width="1" width="133" x="480" y="377"/>
<rect fill="none" height="68" stroke="#000000" stroke-width="1" width="133" x="480" y="377"/>
<text font-family="Lucida Grande" font-size="13" x="485" y="391">
+ PipedLocalSearch</text>
<rect fill="#000000" height="1" stroke="#000000" stroke-width="1" width="133" x="480" y="401"/>
<rect fill="#000000" height="1" stroke="#000000" stroke-width="1" width="133" x="480" y="422"/>
<rect fill="#ffffff" height="104" stroke="#ffffff" stroke-width="1" width="328" x="383" y="470"/>
<rect fill="none" height="104" stroke="#000000" stroke-width="1" width="328" x="383" y="470"/>
<text font-family="Lucida Grande" font-size="13" x="499" y="504">
+ TabuMemory</text>
<text font-family="Lucida Grande" font-size="13" x="499" y="485">
&lt;&lt;interface&gt;&gt;</text>
<rect fill="#000000" height="1" stroke="#000000" stroke-width="1" width="328" x="383" y="514"/>
<text font-family="Lucida Grande" font-size="13" font-style="italic" x="387" y="529">
+isTabu(Move,SolutionType) : boolean</text>
<text font-family="Lucida Grande" font-size="13" font-style="italic" x="387" y="546">
+registerVisitedSolution(SolutionType,Move) : void</text>
<text font-family="Lucida Grande" font-size="13" font-style="italic" x="387" y="563">
+clear() : void</text>
<polyline fill="none" points="343,529 383,529" stroke="#000000" stroke-width="1"/>
<line fill="#000000" stroke="#000000" stroke-width="1" x1="371" x2="383" y1="536" y2="529"/>
<line fill="#000000" stroke="#000000" stroke-width="1" x1="371" x2="383" y1="522" y2="529"/>
<text font-family="Lucida Grande" font-size="13" x="332" y="509">
 </text>
</svg>
