<?xml version="1.0" encoding="utf-8" ?>
<!DOCTYPE svg PUBLIC "-//W3C//DTD SVG 1.1//EN" "http://www.w3.org/Graphics/SVG/1.1/DTD/svg11.dtd">
<svg height="572" version="1.1" width="936" xmlns="http://www.w3.org/2000/svg">
<polygon fill="#ffffff" points="14,14 276,14 276,38 325,38 325,557 14,557 14,14" stroke="#ffffff" stroke-width="1"/>
<rect fill="none" height="24" stroke="#000000" stroke-width="1" width="262" x="14" y="14"/>
<text font-family="Lucida Grande" font-size="13" x="19" y="28">
search.neigh</text>
<rect fill="none" height="519" stroke="#000000" stroke-width="1" width="311" x="14" y="38"/>
<rect fill="#ffffff" height="87" stroke="#ffffff" stroke-width="1" width="259" x="30" y="78"/>
<rect fill="none" height="87" stroke="#000000" stroke-width="1" width="259" x="30" y="78"/>
<text font-family="Lucida Grande" font-size="13" x="103" y="112">
+ Neighbourhood</text>
<text font-family="Lucida Grande" font-size="13" x="112" y="93">
&lt;&lt;interface&gt;&gt;</text>
<rect fill="#000000" height="1" stroke="#000000" stroke-width="1" width="259" x="30" y="122"/>
<text font-family="Lucida Grande" font-size="13" font-style="italic" x="34" y="137">
+getRandomMove(SolutionType) : Move</text>
<text font-family="Lucida Grande" font-size="13" font-style="italic" x="34" y="154">
+getAllMoves(SolutionType) : Set</text>
<rect fill="#ffffff" height="112" stroke="#ffffff" stroke-width="1" width="182" x="69" y="306"/>
<rect fill="none" height="112" stroke="#000000" stroke-width="1" width="182" x="69" y="306"/>
<text font-family="Lucida Grande" font-size="13" x="136" y="340">
+ Move</text>
<text font-family="Lucida Grande" font-size="13" x="112" y="321">
&lt;&lt;interface&gt;&gt;</text>
<rect fill="#000000" height="1" stroke="#000000" stroke-width="1" width="182" x="69" y="350"/>
<text font-family="Lucida Grande" font-size="13" font-style="italic" x="73" y="365">
+apply(SolutionType) : void</text>
<text font-family="Lucida Grande" font-size="13" font-style="italic" x="73" y="382">
+undo(SolutionType) : void</text>
<polyline fill="none" points="162,164 162,306" stroke="#000000" stroke-width="1"/>
<line fill="#000000" stroke="#000000" stroke-width="1" x1="155" x2="162" y1="294" y2="306"/>
<line fill="#000000" stroke="#000000" stroke-width="1" x1="169" x2="162" y1="294" y2="306"/>
<text font-family="Lucida Grande" font-size="13" x="178" y="240">
 </text>
<polygon fill="#ffffff" points="350,14 820,14 820,38 869,38 869,557 350,557 350,14" stroke="#ffffff" stroke-width="1"/>
<rect fill="none" height="24" stroke="#000000" stroke-width="1" width="470" x="350" y="14"/>
<text font-family="Lucida Grande" font-size="13" x="355" y="28">
subset.neigh</text>
<rect fill="none" height="519" stroke="#000000" stroke-width="1" width="519" x="350" y="38"/>
<rect fill="#ffffff" height="71" stroke="#ffffff" stroke-width="1" width="160" x="454" y="470"/>
<rect fill="none" height="71" stroke="#000000" stroke-width="1" width="160" x="454" y="470"/>
<text font-family="Lucida Grande" font-size="13" x="484" y="484">
+ DeletionMove</text>
<rect fill="#000000" height="1" stroke="#000000" stroke-width="1" width="160" x="454" y="494"/>
<text font-family="Lucida Grande" font-size="13" x="458" y="509">
+delete : int</text>
<rect fill="#000000" height="1" stroke="#000000" stroke-width="1" width="160" x="454" y="519"/>
<rect fill="#ffffff" height="88" stroke="#ffffff" stroke-width="1" width="128" x="726" y="264"/>
<rect fill="none" height="88" stroke="#000000" stroke-width="1" width="128" x="726" y="264"/>
<text font-family="Lucida Grande" font-size="13" x="750" y="278">
+ SwapMove</text>
<rect fill="#000000" height="1" stroke="#000000" stroke-width="1" width="128" x="726" y="288"/>
<text font-family="Lucida Grande" font-size="13" x="730" y="303">
+add : int</text>
<text font-family="Lucida Grande" font-size="13" x="730" y="320">
+delete : int</text>
<rect fill="#000000" height="1" stroke="#000000" stroke-width="1" width="128" x="726" y="330"/>
<rect fill="#ffffff" height="71" stroke="#ffffff" stroke-width="1" width="135" x="614" y="377"/>
<rect fill="none" height="71" stroke="#000000" stroke-width="1" width="135" x="614" y="377"/>
<text font-family="Lucida Grande" font-size="13" x="631" y="391">
+ AdditionMove</text>
<rect fill="#000000" height="1" stroke="#000000" stroke-width="1" width="135" x="614" y="401"/>
<text font-family="Lucida Grande" font-size="13" x="618" y="416">
+add : int</text>
<rect fill="#000000" height="1" stroke="#000000" stroke-width="1" width="135" x="614" y="426"/>
<rect fill="#ffffff" height="68" stroke="#ffffff" stroke-width="1" width="193" x="654" y="62"/>
<rect fill="none" height="68" stroke="#000000" stroke-width="1" width="193" x="654" y="62"/>
<text font-family="Lucida Grande" font-size="13" x="659" y="76">
+ SingleSwapNeighbourhood</text>
<rect fill="#000000" height="1" stroke="#000000" stroke-width="1" width="193" x="654" y="86"/>
<rect fill="#000000" height="1" stroke="#000000" stroke-width="1" width="193" x="654" y="107"/>
<line fill="#000000" stroke="#000000" stroke-width="1" x1="654" x2="649" y1="94" y2="94"/>
<line fill="#000000" stroke="#000000" stroke-width="1" x1="644" x2="639" y1="94" y2="94"/>
<line fill="#000000" stroke="#000000" stroke-width="1" x1="634" x2="629" y1="94" y2="94"/>
<line fill="#000000" stroke="#000000" stroke-width="1" x1="624" x2="619" y1="94" y2="94"/>
<line fill="#000000" stroke="#000000" stroke-width="1" x1="614" x2="609" y1="94" y2="94"/>
<line fill="#000000" stroke="#000000" stroke-width="1" x1="604" x2="599" y1="94" y2="94"/>
<line fill="#000000" stroke="#000000" stroke-width="1" x1="594" x2="589" y1="94" y2="94"/>
<line fill="#000000" stroke="#000000" stroke-width="1" x1="584" x2="579" y1="94" y2="94"/>
<line fill="#000000" stroke="#000000" stroke-width="1" x1="574" x2="569" y1="94" y2="94"/>
<line fill="#000000" stroke="#000000" stroke-width="1" x1="564" x2="559" y1="94" y2="94"/>
<line fill="#000000" stroke="#000000" stroke-width="1" x1="554" x2="549" y1="94" y2="94"/>
<line fill="#000000" stroke="#000000" stroke-width="1" x1="544" x2="539" y1="94" y2="94"/>
<line fill="#000000" stroke="#000000" stroke-width="1" x1="534" x2="529" y1="94" y2="94"/>
<line fill="#000000" stroke="#000000" stroke-width="1" x1="524" x2="519" y1="94" y2="94"/>
<line fill="#000000" stroke="#000000" stroke-width="1" x1="514" x2="509" y1="94" y2="94"/>
<line fill="#000000" stroke="#000000" stroke-width="1" x1="504" x2="499" y1="94" y2="94"/>
<line fill="#000000" stroke="#000000" stroke-width="1" x1="494" x2="489" y1="94" y2="94"/>
<line fill="#000000" stroke="#000000" stroke-width="1" x1="484" x2="479" y1="94" y2="94"/>
<line fill="#000000" stroke="#000000" stroke-width="1" x1="474" x2="469" y1="94" y2="94"/>
<line fill="#000000" stroke="#000000" stroke-width="1" x1="464" x2="459" y1="94" y2="94"/>
<line fill="#000000" stroke="#000000" stroke-width="1" x1="454" x2="449" y1="94" y2="94"/>
<line fill="#000000" stroke="#000000" stroke-width="1" x1="444" x2="439" y1="94" y2="94"/>
<line fill="#000000" stroke="#000000" stroke-width="1" x1="434" x2="429" y1="94" y2="94"/>
<line fill="#000000" stroke="#000000" stroke-width="1" x1="424" x2="419" y1="94" y2="94"/>
<line fill="#000000" stroke="#000000" stroke-width="1" x1="414" x2="409" y1="94" y2="94"/>
<line fill="#000000" stroke="#000000" stroke-width="1" x1="404" x2="399" y1="94" y2="94"/>
<line fill="#000000" stroke="#000000" stroke-width="1" x1="394" x2="389" y1="94" y2="94"/>
<line fill="#000000" stroke="#000000" stroke-width="1" x1="384" x2="379" y1="94" y2="94"/>
<line fill="#000000" stroke="#000000" stroke-width="1" x1="374" x2="369" y1="94" y2="94"/>
<line fill="#000000" stroke="#000000" stroke-width="1" x1="364" x2="359" y1="94" y2="94"/>
<line fill="#000000" stroke="#000000" stroke-width="1" x1="354" x2="349" y1="94" y2="94"/>
<line fill="#000000" stroke="#000000" stroke-width="1" x1="344" x2="339" y1="94" y2="94"/>
<line fill="#000000" stroke="#000000" stroke-width="1" x1="334" x2="329" y1="94" y2="94"/>
<line fill="#000000" stroke="#000000" stroke-width="1" x1="324" x2="319" y1="94" y2="94"/>
<line fill="#000000" stroke="#000000" stroke-width="1" x1="314" x2="309" y1="94" y2="94"/>
<line fill="#000000" stroke="#000000" stroke-width="1" x1="304" x2="299" y1="94" y2="94"/>
<line fill="#000000" stroke="#000000" stroke-width="1" x1="294" x2="289" y1="94" y2="94"/>
<polygon fill="#ffffff" points="288,94 300,87 300,101" stroke="#ffffff" stroke-width="1"/>
<polygon fill="none" points="288,94 300,87 300,101" stroke="#000000" stroke-width="1"/>
<polyline fill="none" points="830,129 830,264" stroke="#000000" stroke-width="1"/>
<line fill="#000000" stroke="#000000" stroke-width="1" x1="823" x2="830" y1="252" y2="264"/>
<line fill="#000000" stroke="#000000" stroke-width="1" x1="837" x2="830" y1="252" y2="264"/>
<text font-family="Lucida Grande" font-size="13" x="846" y="201">
 </text>
<rect fill="#ffffff" height="88" stroke="#ffffff" stroke-width="1" width="239" x="526" y="139"/>
<rect fill="none" height="88" stroke="#000000" stroke-width="1" width="239" x="526" y="139"/>
<text font-family="Lucida Grande" font-size="13" x="532" y="153">
+ SinglePerturbationNeighbourhood</text>
<rect fill="#000000" height="1" stroke="#000000" stroke-width="1" width="239" x="526" y="163"/>
<text font-family="Lucida Grande" font-size="13" x="530" y="178">
+minSubsetSize : int</text>
<text font-family="Lucida Grande" font-size="13" x="530" y="195">
+maxSubsetSize : int</text>
<rect fill="#000000" height="1" stroke="#000000" stroke-width="1" width="239" x="526" y="205"/>
<line fill="#000000" stroke="#000000" stroke-width="1" x1="526" x2="521" y1="146" y2="146"/>
<line fill="#000000" stroke="#000000" stroke-width="1" x1="516" x2="511" y1="146" y2="146"/>
<line fill="#000000" stroke="#000000" stroke-width="1" x1="506" x2="501" y1="146" y2="146"/>
<line fill="#000000" stroke="#000000" stroke-width="1" x1="496" x2="491" y1="146" y2="146"/>
<line fill="#000000" stroke="#000000" stroke-width="1" x1="486" x2="481" y1="146" y2="146"/>
<line fill="#000000" stroke="#000000" stroke-width="1" x1="476" x2="471" y1="146" y2="146"/>
<line fill="#000000" stroke="#000000" stroke-width="1" x1="466" x2="461" y1="146" y2="146"/>
<line fill="#000000" stroke="#000000" stroke-width="1" x1="456" x2="451" y1="146" y2="146"/>
<line fill="#000000" stroke="#000000" stroke-width="1" x1="446" x2="441" y1="146" y2="146"/>
<line fill="#000000" stroke="#000000" stroke-width="1" x1="436" x2="431" y1="146" y2="146"/>
<line fill="#000000" stroke="#000000" stroke-width="1" x1="426" x2="421" y1="146" y2="146"/>
<line fill="#000000" stroke="#000000" stroke-width="1" x1="416" x2="411" y1="146" y2="146"/>
<line fill="#000000" stroke="#000000" stroke-width="1" x1="406" x2="401" y1="146" y2="146"/>
<line fill="#000000" stroke="#000000" stroke-width="1" x1="396" x2="391" y1="146" y2="146"/>
<line fill="#000000" stroke="#000000" stroke-width="1" x1="386" x2="381" y1="146" y2="146"/>
<line fill="#000000" stroke="#000000" stroke-width="1" x1="376" x2="371" y1="146" y2="146"/>
<line fill="#000000" stroke="#000000" stroke-width="1" x1="366" x2="361" y1="146" y2="146"/>
<line fill="#000000" stroke="#000000" stroke-width="1" x1="356" x2="351" y1="146" y2="146"/>
<line fill="#000000" stroke="#000000" stroke-width="1" x1="346" x2="341" y1="146" y2="146"/>
<line fill="#000000" stroke="#000000" stroke-width="1" x1="336" x2="331" y1="146" y2="146"/>
<line fill="#000000" stroke="#000000" stroke-width="1" x1="326" x2="321" y1="146" y2="146"/>
<line fill="#000000" stroke="#000000" stroke-width="1" x1="316" x2="311" y1="146" y2="146"/>
<line fill="#000000" stroke="#000000" stroke-width="1" x1="306" x2="301" y1="146" y2="146"/>
<line fill="#000000" stroke="#000000" stroke-width="1" x1="296" x2="291" y1="146" y2="146"/>
<polygon fill="#ffffff" points="288,146 300,139 300,153" stroke="#ffffff" stroke-width="1"/>
<polygon fill="none" points="288,146 300,139 300,153" stroke="#000000" stroke-width="1"/>
<polyline fill="none" points="748,226 748,264" stroke="#000000" stroke-width="1"/>
<line fill="#000000" stroke="#000000" stroke-width="1" x1="741" x2="748" y1="252" y2="264"/>
<line fill="#000000" stroke="#000000" stroke-width="1" x1="755" x2="748" y1="252" y2="264"/>
<text font-family="Lucida Grande" font-size="13" x="763" y="248">
 </text>
<polyline fill="none" points="573,226 573,470" stroke="#000000" stroke-width="1"/>
<line fill="#000000" stroke="#000000" stroke-width="1" x1="566" x2="573" y1="458" y2="470"/>
<line fill="#000000" stroke="#000000" stroke-width="1" x1="580" x2="573" y1="458" y2="470"/>
<text font-family="Lucida Grande" font-size="13" x="589" y="353">
 </text>
<polyline fill="none" points="684,226 684,377" stroke="#000000" stroke-width="1"/>
<line fill="#000000" stroke="#000000" stroke-width="1" x1="677" x2="684" y1="365" y2="377"/>
<line fill="#000000" stroke="#000000" stroke-width="1" x1="691" x2="684" y1="365" y2="377"/>
<text font-family="Lucida Grande" font-size="13" x="700" y="306">
 </text>
<rect fill="#ffffff" height="121" stroke="#ffffff" stroke-width="1" width="154" x="374" y="306"/>
<rect fill="none" height="121" stroke="#000000" stroke-width="1" width="154" x="374" y="306"/>
<text font-family="Lucida Grande" font-size="13" x="406" y="340">
+ SubsetMove</text>
<text font-family="Lucida Grande" font-size="13" x="403" y="321">
&lt;&lt;interface&gt;&gt;</text>
<rect fill="#000000" height="1" stroke="#000000" stroke-width="1" width="154" x="374" y="350"/>
<text font-family="Lucida Grande" font-size="13" font-style="italic" x="378" y="365">
+getAddedIDs() : Set</text>
<text font-family="Lucida Grande" font-size="13" font-style="italic" x="378" y="382">
+getDeletedIDs() : Set</text>
<text font-family="Lucida Grande" font-size="13" font-style="italic" x="378" y="399">
+getNumAdded() : int</text>
<text font-family="Lucida Grande" font-size="13" font-style="italic" x="378" y="416">
+getNumDeleted() : int</text>
<polyline fill="none" points="374,329 250,329" stroke="#000000" stroke-width="1"/>
<polygon fill="#ffffff" points="250,329 262,322 262,336" stroke="#ffffff" stroke-width="1"/>
<polygon fill="none" points="250,329 262,322 262,336" stroke="#000000" stroke-width="1"/>
<line fill="#000000" stroke="#000000" stroke-width="1" x1="726" x2="721" y1="337" y2="337"/>
<line fill="#000000" stroke="#000000" stroke-width="1" x1="716" x2="711" y1="337" y2="337"/>
<line fill="#000000" stroke="#000000" stroke-width="1" x1="706" x2="701" y1="337" y2="337"/>
<line fill="#000000" stroke="#000000" stroke-width="1" x1="696" x2="691" y1="337" y2="337"/>
<line fill="#000000" stroke="#000000" stroke-width="1" x1="686" x2="681" y1="337" y2="337"/>
<line fill="#000000" stroke="#000000" stroke-width="1" x1="676" x2="671" y1="337" y2="337"/>
<line fill="#000000" stroke="#000000" stroke-width="1" x1="666" x2="661" y1="337" y2="337"/>
<line fill="#000000" stroke="#000000" stroke-width="1" x1="656" x2="651" y1="337" y2="337"/>
<line fill="#000000" stroke="#000000" stroke-width="1" x1="646" x2="641" y1="337" y2="337"/>
<line fill="#000000" stroke="#000000" stroke-width="1" x1="636" x2="631" y1="337" y2="337"/>
<line fill="#000000" stroke="#000000" stroke-width="1" x1="626" x2="621" y1="337" y2="337"/>
<line fill="#000000" stroke="#000000" stroke-width="1" x1="616" x2="611" y1="337" y2="337"/>
<line fill="#000000" stroke="#000000" stroke-width="1" x1="606" x2="601" y1="337" y2="337"/>
<line fill="#000000" stroke="#000000" stroke-width="1" x1="596" x2="591" y1="337" y2="337"/>
<line fill="#000000" stroke="#000000" stroke-width="1" x1="586" x2="581" y1="337" y2="337"/>
<line fill="#000000" stroke="#000000" stroke-width="1" x1="576" x2="571" y1="337" y2="337"/>
<line fill="#000000" stroke="#000000" stroke-width="1" x1="566" x2="561" y1="337" y2="337"/>
<line fill="#000000" stroke="#000000" stroke-width="1" x1="556" x2="551" y1="337" y2="337"/>
<line fill="#000000" stroke="#000000" stroke-width="1" x1="546" x2="541" y1="337" y2="337"/>
<line fill="#000000" stroke="#000000" stroke-width="1" x1="536" x2="531" y1="337" y2="337"/>
<polygon fill="#ffffff" points="527,337 539,330 539,344" stroke="#ffffff" stroke-width="1"/>
<polygon fill="none" points="527,337 539,330 539,344" stroke="#000000" stroke-width="1"/>
<line fill="#000000" stroke="#000000" stroke-width="1" x1="614" x2="609" y1="388" y2="388"/>
<line fill="#000000" stroke="#000000" stroke-width="1" x1="604" x2="599" y1="388" y2="388"/>
<line fill="#000000" stroke="#000000" stroke-width="1" x1="594" x2="589" y1="388" y2="388"/>
<line fill="#000000" stroke="#000000" stroke-width="1" x1="584" x2="579" y1="388" y2="388"/>
<line fill="#000000" stroke="#000000" stroke-width="1" x1="574" x2="569" y1="388" y2="388"/>
<line fill="#000000" stroke="#000000" stroke-width="1" x1="564" x2="559" y1="388" y2="388"/>
<line fill="#000000" stroke="#000000" stroke-width="1" x1="554" x2="549" y1="388" y2="388"/>
<line fill="#000000" stroke="#000000" stroke-width="1" x1="544" x2="539" y1="388" y2="388"/>
<line fill="#000000" stroke="#000000" stroke-width="1" x1="534" x2="529" y1="388" y2="388"/>
<polygon fill="#ffffff" points="527,388 539,381 539,395" stroke="#ffffff" stroke-width="1"/>
<polygon fill="none" points="527,388 539,381 539,395" stroke="#000000" stroke-width="1"/>
<line fill="#000000" stroke="#000000" stroke-width="1" x1="495" x2="495" y1="470" y2="465"/>
<line fill="#000000" stroke="#000000" stroke-width="1" x1="495" x2="495" y1="460" y2="455"/>
<line fill="#000000" stroke="#000000" stroke-width="1" x1="495" x2="495" y1="450" y2="445"/>
<line fill="#000000" stroke="#000000" stroke-width="1" x1="495" x2="495" y1="440" y2="435"/>
<line fill="#000000" stroke="#000000" stroke-width="1" x1="495" x2="495" y1="430" y2="426"/>
<polygon fill="#ffffff" points="495,426 502,438 488,438" stroke="#ffffff" stroke-width="1"/>
<polygon fill="none" points="495,426 502,438 488,438" stroke="#000000" stroke-width="1"/>
</svg>
