<?xml version="1.0" encoding="utf-8" ?>
<!DOCTYPE svg PUBLIC "-//W3C//DTD SVG 1.1//EN" "http://www.w3.org/Graphics/SVG/1.1/DTD/svg11.dtd">
<svg height="868" version="1.1" width="916" xmlns="http://www.w3.org/2000/svg">
<polygon fill="#ffffff" points="14,14 852,14 852,38 901,38 901,853 14,853 14,14" stroke="#ffffff" stroke-width="1"/>
<rect fill="none" height="24" stroke="#000000" stroke-width="1" width="838" x="14" y="14"/>
<text font-family="Lucida Grande" font-size="13" x="19" y="28">
subset.neigh</text>
<rect fill="none" height="815" stroke="#000000" stroke-width="1" width="887" x="14" y="38"/>
<rect fill="#ffffff" height="68" stroke="#ffffff" stroke-width="1" width="193" x="46" y="215"/>
<rect fill="none" height="68" stroke="#000000" stroke-width="1" width="193" x="46" y="215"/>
<text font-family="Lucida Grande" font-size="13" x="51" y="229">
+ SingleSwapNeighbourhood</text>
<rect fill="#000000" height="1" stroke="#000000" stroke-width="1" width="193" x="46" y="239"/>
<rect fill="#000000" height="1" stroke="#000000" stroke-width="1" width="193" x="46" y="260"/>
<rect fill="#ffffff" height="88" stroke="#ffffff" stroke-width="1" width="408" x="238" y="62"/>
<rect fill="none" height="88" stroke="#000000" stroke-width="1" width="408" x="238" y="62"/>
<text font-family="Lucida Grande" font-size="13" x="328" y="76">
+ SinglePerturbationNeighbourhood</text>
<rect fill="#000000" height="1" stroke="#000000" stroke-width="1" width="408" x="238" y="86"/>
<text font-family="Lucida Grande" font-size="13" x="242" y="101">
+minSubsetSize : int</text>
<text font-family="Lucida Grande" font-size="13" x="242" y="118">
+maxSubsetSize : int</text>
<rect fill="#000000" height="1" stroke="#000000" stroke-width="1" width="408" x="238" y="128"/>
<polygon fill="#ffffff" points="118,350 708,350 708,374 757,374 757,829 118,829 118,350" stroke="#ffffff" stroke-width="1"/>
<rect fill="none" height="24" stroke="#000000" stroke-width="1" width="590" x="118" y="350"/>
<text font-family="Lucida Grande" font-size="13" x="123" y="364">
moves</text>
<rect fill="none" height="455" stroke="#000000" stroke-width="1" width="639" x="118" y="374"/>
<rect fill="#ffffff" height="121" stroke="#ffffff" stroke-width="1" width="154" x="360" y="678"/>
<rect fill="none" height="121" stroke="#000000" stroke-width="1" width="154" x="360" y="678"/>
<text font-family="Lucida Grande" font-size="13" x="392" y="712">
+ SubsetMove</text>
<text font-family="Lucida Grande" font-size="13" x="389" y="693">
&lt;&lt;interface&gt;&gt;</text>
<rect fill="#000000" height="1" stroke="#000000" stroke-width="1" width="154" x="360" y="722"/>
<text font-family="Lucida Grande" font-size="13" font-style="italic" x="364" y="737">
+getAddedIDs() : Set</text>
<text font-family="Lucida Grande" font-size="13" font-style="italic" x="364" y="754">
+getDeletedIDs() : Set</text>
<text font-family="Lucida Grande" font-size="13" font-style="italic" x="364" y="771">
+getNumAdded() : int</text>
<text font-family="Lucida Grande" font-size="13" font-style="italic" x="364" y="788">
+getNumDeleted() : int</text>
<rect fill="#ffffff" height="67" stroke="#ffffff" stroke-width="1" width="128" x="158" y="419"/>
<rect fill="none" height="67" stroke="#000000" stroke-width="1" width="128" x="158" y="419"/>
<text font-family="Lucida Grande" font-size="13" x="182" y="433">
+ SwapMove</text>
<rect fill="#000000" height="1" stroke="#000000" stroke-width="1" width="128" x="158" y="443"/>
<rect fill="#000000" height="1" stroke="#000000" stroke-width="1" width="128" x="158" y="464"/>
<polyline fill="none" points="270,149 270,419" stroke="#000000" stroke-width="1"/>
<line fill="#000000" stroke="#000000" stroke-width="1" x1="263" x2="270" y1="407" y2="419"/>
<line fill="#000000" stroke="#000000" stroke-width="1" x1="277" x2="270" y1="407" y2="419"/>
<text font-family="Lucida Grande" font-size="13" x="285" y="287">
 </text>
<polyline fill="none" points="182,282 182,419" stroke="#000000" stroke-width="1"/>
<line fill="#000000" stroke="#000000" stroke-width="1" x1="175" x2="182" y1="407" y2="419"/>
<line fill="#000000" stroke="#000000" stroke-width="1" x1="189" x2="182" y1="407" y2="419"/>
<text font-family="Lucida Grande" font-size="13" x="198" y="355">
 </text>
<rect fill="#ffffff" height="68" stroke="#ffffff" stroke-width="1" width="136" x="358" y="418"/>
<rect fill="none" height="68" stroke="#000000" stroke-width="1" width="136" x="358" y="418"/>
<text font-family="Lucida Grande" font-size="13" x="375" y="432">
+ AdditionMove</text>
<rect fill="#000000" height="1" stroke="#000000" stroke-width="1" width="136" x="358" y="442"/>
<rect fill="#000000" height="1" stroke="#000000" stroke-width="1" width="136" x="358" y="463"/>
<polyline fill="none" points="382,149 382,418" stroke="#000000" stroke-width="1"/>
<line fill="#000000" stroke="#000000" stroke-width="1" x1="375" x2="382" y1="406" y2="418"/>
<line fill="#000000" stroke="#000000" stroke-width="1" x1="389" x2="382" y1="406" y2="418"/>
<text font-family="Lucida Grande" font-size="13" x="398" y="288">
 </text>
<rect fill="#ffffff" height="67" stroke="#ffffff" stroke-width="1" width="144" x="574" y="419"/>
<rect fill="none" height="67" stroke="#000000" stroke-width="1" width="144" x="574" y="419"/>
<text font-family="Lucida Grande" font-size="13" x="596" y="433">
+ DeletionMove</text>
<rect fill="#000000" height="1" stroke="#000000" stroke-width="1" width="144" x="574" y="443"/>
<rect fill="#000000" height="1" stroke="#000000" stroke-width="1" width="144" x="574" y="464"/>
<polyline fill="none" points="633,149 633,419" stroke="#000000" stroke-width="1"/>
<line fill="#000000" stroke="#000000" stroke-width="1" x1="626" x2="633" y1="407" y2="419"/>
<line fill="#000000" stroke="#000000" stroke-width="1" x1="640" x2="633" y1="407" y2="419"/>
<text font-family="Lucida Grande" font-size="13" x="649" y="289">
 </text>
<rect fill="#ffffff" height="88" stroke="#ffffff" stroke-width="1" width="392" x="241" y="542"/>
<rect fill="none" height="88" stroke="#000000" stroke-width="1" width="392" x="241" y="542"/>
<text font-family="Lucida Grande" font-size="13" x="369" y="556">
+ GeneralSubsetMove</text>
<rect fill="#000000" height="1" stroke="#000000" stroke-width="1" width="392" x="241" y="566"/>
<text font-family="Lucida Grande" font-size="13" x="245" y="581">
+add : Set</text>
<text font-family="Lucida Grande" font-size="13" x="245" y="598">
+delete : Set</text>
<rect fill="#000000" height="1" stroke="#000000" stroke-width="1" width="392" x="241" y="608"/>
<polyline fill="none" points="262,485 262,542" stroke="#000000" stroke-width="1"/>
<polygon fill="#ffffff" points="262,542 255,530 269,530" stroke="#ffffff" stroke-width="1"/>
<polygon fill="none" points="262,542 255,530 269,530" stroke="#000000" stroke-width="1"/>
<polyline fill="none" points="414,485 414,542" stroke="#000000" stroke-width="1"/>
<polygon fill="#ffffff" points="414,542 407,530 421,530" stroke="#ffffff" stroke-width="1"/>
<polygon fill="none" points="414,542 407,530 421,530" stroke="#000000" stroke-width="1"/>
<polyline fill="none" points="614,485 614,542" stroke="#000000" stroke-width="1"/>
<polygon fill="#ffffff" points="614,542 607,530 621,530" stroke="#ffffff" stroke-width="1"/>
<polygon fill="none" points="614,542 607,530 621,530" stroke="#000000" stroke-width="1"/>
<line fill="#000000" stroke="#000000" stroke-width="1" x1="438" x2="438" y1="629" y2="634"/>
<line fill="#000000" stroke="#000000" stroke-width="1" x1="438" x2="438" y1="639" y2="644"/>
<line fill="#000000" stroke="#000000" stroke-width="1" x1="438" x2="438" y1="649" y2="654"/>
<line fill="#000000" stroke="#000000" stroke-width="1" x1="438" x2="438" y1="659" y2="664"/>
<line fill="#000000" stroke="#000000" stroke-width="1" x1="438" x2="438" y1="669" y2="674"/>
<polygon fill="#ffffff" points="438,678 431,666 445,666" stroke="#ffffff" stroke-width="1"/>
<polygon fill="none" points="438,678 431,666 445,666" stroke="#000000" stroke-width="1"/>
<rect fill="#ffffff" height="71" stroke="#ffffff" stroke-width="1" width="215" x="398" y="214"/>
<rect fill="none" height="71" stroke="#000000" stroke-width="1" width="215" x="398" y="214"/>
<text font-family="Lucida Grande" font-size="13" x="403" y="228">
+ SingleAdditionNeighbourhood</text>
<rect fill="#000000" height="1" stroke="#000000" stroke-width="1" width="215" x="398" y="238"/>
<text font-family="Lucida Grande" font-size="13" x="402" y="253">
+maxSubsetSize : int</text>
<rect fill="#000000" height="1" stroke="#000000" stroke-width="1" width="215" x="398" y="263"/>
<rect fill="#ffffff" height="71" stroke="#ffffff" stroke-width="1" width="214" x="654" y="214"/>
<rect fill="none" height="71" stroke="#000000" stroke-width="1" width="214" x="654" y="214"/>
<text font-family="Lucida Grande" font-size="13" x="659" y="228">
+ SingleDeletionNeighbourhood</text>
<rect fill="#000000" height="1" stroke="#000000" stroke-width="1" width="214" x="654" y="238"/>
<text font-family="Lucida Grande" font-size="13" x="658" y="253">
+minSubsetSize : int</text>
<rect fill="#000000" height="1" stroke="#000000" stroke-width="1" width="214" x="654" y="263"/>
<polyline fill="none" points="686,284 686,419" stroke="#000000" stroke-width="1"/>
<line fill="#000000" stroke="#000000" stroke-width="1" x1="679" x2="686" y1="407" y2="419"/>
<line fill="#000000" stroke="#000000" stroke-width="1" x1="693" x2="686" y1="407" y2="419"/>
<text font-family="Lucida Grande" font-size="13" x="702" y="356">
 </text>
<polyline fill="none" points="452,284 452,418" stroke="#000000" stroke-width="1"/>
<line fill="#000000" stroke="#000000" stroke-width="1" x1="445" x2="452" y1="406" y2="418"/>
<line fill="#000000" stroke="#000000" stroke-width="1" x1="459" x2="452" y1="406" y2="418"/>
<text font-family="Lucida Grande" font-size="13" x="468" y="356">
 </text>
</svg>
