<?xml version="1.0" encoding="utf-8" ?>
<!DOCTYPE svg PUBLIC "-//W3C//DTD SVG 1.1//EN" "http://www.w3.org/Graphics/SVG/1.1/DTD/svg11.dtd">
<svg height="388" version="1.1" width="372" xmlns="http://www.w3.org/2000/svg">
<polygon fill="#ffffff" points="14,14 308,14 308,38 357,38 357,373 14,373 14,14" stroke="#ffffff" stroke-width="1"/>
<rect fill="none" height="24" stroke="#000000" stroke-width="1" width="294" x="14" y="14"/>
<text font-family="Lucida Grande" font-size="13" x="19" y="28">
search</text>
<rect fill="none" height="335" stroke="#000000" stroke-width="1" width="343" x="14" y="38"/>
<polygon fill="#ffffff" points="30,54 292,54 292,78 341,78 341,357 30,357 30,54" stroke="#ffffff" stroke-width="1"/>
<rect fill="none" height="24" stroke="#000000" stroke-width="1" width="262" x="30" y="54"/>
<text font-family="Lucida Grande" font-size="13" x="35" y="68">
neigh</text>
<rect fill="none" height="279" stroke="#000000" stroke-width="1" width="311" x="30" y="78"/>
<rect fill="#ffffff" height="87" stroke="#ffffff" stroke-width="1" width="249" x="62" y="110"/>
<rect fill="none" height="87" stroke="#000000" stroke-width="1" width="249" x="62" y="110"/>
<text font-family="Lucida Grande" font-size="13" x="137" y="144">
Neighbourhood</text>
<text font-family="Lucida Grande" font-size="13" x="139" y="125">
&lt;&lt;interface&gt;&gt;</text>
<rect fill="#000000" height="1" stroke="#000000" stroke-width="1" width="249" x="62" y="154"/>
<text font-family="Lucida Grande" font-size="13" x="66" y="169">
getRandomMove(SolutionType) : Move</text>
<text font-family="Lucida Grande" font-size="13" x="66" y="186">
getAllMoves(SolutionType) : Set</text>
<rect fill="#ffffff" height="87" stroke="#ffffff" stroke-width="1" width="171" x="102" y="238"/>
<rect fill="none" height="87" stroke="#000000" stroke-width="1" width="171" x="102" y="238"/>
<text font-family="Lucida Grande" font-size="13" x="171" y="272">
Move</text>
<text font-family="Lucida Grande" font-size="13" x="140" y="253">
&lt;&lt;interface&gt;&gt;</text>
<rect fill="#000000" height="1" stroke="#000000" stroke-width="1" width="171" x="102" y="282"/>
<text font-family="Lucida Grande" font-size="13" x="106" y="297">
apply(SolutionType) : void</text>
<text font-family="Lucida Grande" font-size="13" x="106" y="314">
undo(SolutionType) : void</text>
<polyline fill="none" points="187,196 187,238" stroke="#000000" stroke-width="1"/>
<line fill="#000000" stroke="#000000" stroke-width="1" x1="180" x2="187" y1="226" y2="238"/>
<line fill="#000000" stroke="#000000" stroke-width="1" x1="194" x2="187" y1="226" y2="238"/>
</svg>
