<?xml version="1.0" encoding="utf-8" ?>
<!DOCTYPE svg PUBLIC "-//W3C//DTD SVG 1.1//EN" "http://www.w3.org/Graphics/SVG/1.1/DTD/svg11.dtd">
<svg height="676" version="1.1" width="761" xmlns="http://www.w3.org/2000/svg">
<rect fill="#ffffff" height="67" stroke="#ffffff" stroke-width="1" width="207" x="458" y="131"/>
<rect fill="none" height="67" stroke="#000000" stroke-width="1" width="207" x="458" y="131"/>
<text font-family="Lucida Grande" font-size="13" x="490" y="145">
Search&lt;SolutionType&gt;</text>
<rect fill="#000000" height="1" stroke="#000000" stroke-width="1" width="207" x="458" y="155"/>
<rect fill="#000000" height="1" stroke="#000000" stroke-width="1" width="207" x="458" y="176"/>
<rect fill="#ffffff" height="71" stroke="#ffffff" stroke-width="1" width="164" x="81" y="131"/>
<rect fill="none" height="71" stroke="#000000" stroke-width="1" width="164" x="81" y="131"/>
<text font-family="Lucida Grande" font-size="13" x="86" y="145">
Problem&lt;SolutionType&gt;</text>
<rect fill="#000000" height="1" stroke="#000000" stroke-width="1" width="164" x="81" y="155"/>
<rect fill="#000000" height="1" stroke="#000000" stroke-width="1" width="164" x="81" y="178"/>
<polyline fill="none" points="458,167 244,167" stroke="#000000" stroke-width="1"/>
<line fill="#000000" stroke="#000000" stroke-width="1" x1="256" x2="244" y1="160" y2="167"/>
<line fill="#000000" stroke="#000000" stroke-width="1" x1="256" x2="244" y1="174" y2="167"/>
<text font-family="Lucida Grande" font-size="13" x="336" y="159">
solves</text>
<rect fill="#ffffff" height="67" stroke="#ffffff" stroke-width="1" width="285" x="22" y="263"/>
<rect fill="none" height="67" stroke="#000000" stroke-width="1" width="285" x="22" y="263"/>
<text font-family="Lucida Grande" font-size="13" x="30" y="277">
AbstractProblem&lt;SolutionType,DataType&gt;</text>
<rect fill="#000000" height="1" stroke="#000000" stroke-width="1" width="285" x="22" y="287"/>
<rect fill="#000000" height="1" stroke="#000000" stroke-width="1" width="285" x="22" y="308"/>
<polyline fill="none" points="168,263 168,201" stroke="#333399" stroke-width="1"/>
<polygon fill="#ffffff" points="168,201 175,213 161,213" stroke="#ffffff" stroke-width="1"/>
<polygon fill="none" points="168,201 175,213 161,213" stroke="#333399" stroke-width="1"/>
<rect fill="#ffffff" height="67" stroke="#ffffff" stroke-width="1" width="156" x="274" y="14"/>
<rect fill="none" height="67" stroke="#000000" stroke-width="1" width="156" x="274" y="14"/>
<text font-family="Lucida Grande" font-size="13" font-style="italic" x="279" y="28">
Solution (SolutionType)</text>
<rect fill="#000000" height="1" stroke="#000000" stroke-width="1" width="156" x="274" y="38"/>
<rect fill="#000000" height="1" stroke="#000000" stroke-width="1" width="156" x="274" y="59"/>
<polyline fill="none" points="458,131 401,118 401,80" stroke="#000000" stroke-width="1"/>
<line fill="#000000" stroke="#000000" stroke-width="1" x1="408" x2="401" y1="92" y2="80"/>
<line fill="#000000" stroke="#000000" stroke-width="1" x1="394" x2="401" y1="92" y2="80"/>
<text font-family="Lucida Grande" font-size="13" x="411" y="108">
constructs</text>
<rect fill="#ffffff" height="68" stroke="#ffffff" stroke-width="1" width="110" x="225" y="414"/>
<rect fill="none" height="68" stroke="#000000" stroke-width="1" width="110" x="225" y="414"/>
<text font-family="Lucida Grande" font-size="13" font-style="italic" x="230" y="428">
Data (DataType)</text>
<rect fill="#000000" height="1" stroke="#000000" stroke-width="1" width="110" x="225" y="438"/>
<rect fill="#000000" height="1" stroke="#000000" stroke-width="1" width="110" x="225" y="459"/>
<polyline fill="none" points="273,329 273,414" stroke="#000000" stroke-width="1"/>
<line fill="#000000" stroke="#000000" stroke-width="1" x1="266" x2="273" y1="402" y2="414"/>
<line fill="#000000" stroke="#000000" stroke-width="1" x1="280" x2="273" y1="402" y2="414"/>
<text font-family="Lucida Grande" font-size="13" x="280" y="374">
has</text>
<rect fill="#ffffff" height="68" stroke="#ffffff" stroke-width="1" width="234" x="105" y="504"/>
<rect fill="none" height="68" stroke="#000000" stroke-width="1" width="234" x="105" y="504"/>
<text font-family="Lucida Grande" font-size="13" x="110" y="518">
Objective&lt;SolutionType,DataType&gt;</text>
<rect fill="#000000" height="1" stroke="#000000" stroke-width="1" width="234" x="105" y="528"/>
<rect fill="#000000" height="1" stroke="#000000" stroke-width="1" width="234" x="105" y="549"/>
<rect fill="#ffffff" height="68" stroke="#ffffff" stroke-width="1" width="241" x="33" y="594"/>
<rect fill="none" height="68" stroke="#000000" stroke-width="1" width="241" x="33" y="594"/>
<text font-family="Lucida Grande" font-size="13" x="38" y="608">
Constraint&lt;SolutionType,DataType&gt;</text>
<rect fill="#000000" height="1" stroke="#000000" stroke-width="1" width="241" x="33" y="618"/>
<rect fill="#000000" height="1" stroke="#000000" stroke-width="1" width="241" x="33" y="639"/>
<polyline fill="none" points="172,329 172,504" stroke="#000000" stroke-width="1"/>
<line fill="#000000" stroke="#000000" stroke-width="1" x1="165" x2="172" y1="492" y2="504"/>
<line fill="#000000" stroke="#000000" stroke-width="1" x1="179" x2="172" y1="492" y2="504"/>
<text font-family="Lucida Grande" font-size="13" x="178" y="422">
has a</text>
<polyline fill="none" points="51,329 51,594" stroke="#000000" stroke-width="1"/>
<line fill="#000000" stroke="#000000" stroke-width="1" x1="44" x2="51" y1="582" y2="594"/>
<line fill="#000000" stroke="#000000" stroke-width="1" x1="58" x2="51" y1="582" y2="594"/>
<text font-family="Lucida Grande" font-size="13" x="57" y="447">
has ≥ 0</text>
<rect fill="#ffffff" height="68" stroke="#ffffff" stroke-width="1" width="93" x="517" y="14"/>
<rect fill="none" height="68" stroke="#000000" stroke-width="1" width="93" x="517" y="14"/>
<text font-family="Lucida Grande" font-size="13" x="522" y="28">
StopCriterion</text>
<rect fill="#000000" height="1" stroke="#000000" stroke-width="1" width="93" x="517" y="38"/>
<rect fill="#000000" height="1" stroke="#000000" stroke-width="1" width="93" x="517" y="59"/>
<polyline fill="none" points="565,131 565,81" stroke="#000000" stroke-width="1"/>
<line fill="#000000" stroke="#000000" stroke-width="1" x1="572" x2="565" y1="93" y2="81"/>
<line fill="#000000" stroke="#000000" stroke-width="1" x1="558" x2="565" y1="93" y2="81"/>
<text font-family="Lucida Grande" font-size="13" x="576" y="111">
has ≥ 0</text>
<rect fill="#ffffff" height="68" stroke="#ffffff" stroke-width="1" width="252" x="435" y="350"/>
<rect fill="none" height="68" stroke="#000000" stroke-width="1" width="252" x="435" y="350"/>
<text font-family="Lucida Grande" font-size="13" x="440" y="364">
NeighbourhoodSearch&lt;SolutionType&gt;</text>
<rect fill="#000000" height="1" stroke="#000000" stroke-width="1" width="252" x="435" y="374"/>
<rect fill="#000000" height="1" stroke="#000000" stroke-width="1" width="252" x="435" y="395"/>
<rect fill="#ffffff" height="68" stroke="#ffffff" stroke-width="1" width="101" x="633" y="14"/>
<rect fill="none" height="68" stroke="#000000" stroke-width="1" width="101" x="633" y="14"/>
<text font-family="Lucida Grande" font-size="13" x="638" y="28">
SearchListener</text>
<rect fill="#000000" height="1" stroke="#000000" stroke-width="1" width="101" x="633" y="38"/>
<rect fill="#000000" height="1" stroke="#000000" stroke-width="1" width="101" x="633" y="59"/>
<polyline fill="none" points="651,131 651,81" stroke="#000000" stroke-width="1"/>
<line fill="#000000" stroke="#000000" stroke-width="1" x1="658" x2="651" y1="93" y2="81"/>
<line fill="#000000" stroke="#000000" stroke-width="1" x1="644" x2="651" y1="93" y2="81"/>
<text font-family="Lucida Grande" font-size="13" x="658" y="111">
has ≥ 0</text>
<rect fill="#ffffff" height="68" stroke="#ffffff" stroke-width="1" width="210" x="456" y="470"/>
<rect fill="none" height="68" stroke="#000000" stroke-width="1" width="210" x="456" y="470"/>
<text font-family="Lucida Grande" font-size="13" x="461" y="484">
Neighbourhood&lt;SolutionType&gt;</text>
<rect fill="#000000" height="1" stroke="#000000" stroke-width="1" width="210" x="456" y="494"/>
<rect fill="#000000" height="1" stroke="#000000" stroke-width="1" width="210" x="456" y="515"/>
<polyline fill="none" points="563,417 563,470" stroke="#000000" stroke-width="1"/>
<line fill="#000000" stroke="#000000" stroke-width="1" x1="556" x2="563" y1="458" y2="470"/>
<line fill="#000000" stroke="#000000" stroke-width="1" x1="570" x2="563" y1="458" y2="470"/>
<text font-family="Lucida Grande" font-size="13" x="570" y="448">
has ≥ 1</text>
<rect fill="#ffffff" height="68" stroke="#ffffff" stroke-width="1" width="145" x="489" y="594"/>
<rect fill="none" height="68" stroke="#000000" stroke-width="1" width="145" x="489" y="594"/>
<text font-family="Lucida Grande" font-size="13" x="494" y="608">
Move&lt;SolutionType&gt;</text>
<rect fill="#000000" height="1" stroke="#000000" stroke-width="1" width="145" x="489" y="618"/>
<rect fill="#000000" height="1" stroke="#000000" stroke-width="1" width="145" x="489" y="639"/>
<polyline fill="none" points="563,537 563,594" stroke="#000000" stroke-width="1"/>
<line fill="#000000" stroke="#000000" stroke-width="1" x1="556" x2="563" y1="582" y2="594"/>
<line fill="#000000" stroke="#000000" stroke-width="1" x1="570" x2="563" y1="582" y2="594"/>
<text font-family="Lucida Grande" font-size="13" x="572" y="570">
generates</text>
<rect fill="#ffffff" height="68" stroke="#ffffff" stroke-width="1" width="186" x="468" y="238"/>
<rect fill="none" height="68" stroke="#000000" stroke-width="1" width="186" x="468" y="238"/>
<text font-family="Lucida Grande" font-size="13" x="473" y="252">
LocalSearch&lt;SolutionType&gt;</text>
<rect fill="#000000" height="1" stroke="#000000" stroke-width="1" width="186" x="468" y="262"/>
<rect fill="#000000" height="1" stroke="#000000" stroke-width="1" width="186" x="468" y="283"/>
<polyline fill="none" points="561,238 561,197" stroke="#000000" stroke-width="1"/>
<polygon fill="#ffffff" points="561,197 568,209 554,209" stroke="#ffffff" stroke-width="1"/>
<polygon fill="none" points="561,197 568,209 554,209" stroke="#000000" stroke-width="1"/>
<polyline fill="none" points="561,350 561,305" stroke="#000000" stroke-width="1"/>
<polygon fill="#ffffff" points="561,305 568,317 554,317" stroke="#ffffff" stroke-width="1"/>
<polygon fill="none" points="561,305 568,317 554,317" stroke="#000000" stroke-width="1"/>
<polyline fill="none" points="244,131 305,118 305,80" stroke="#000000" stroke-width="1"/>
<line fill="#000000" stroke="#000000" stroke-width="1" x1="312" x2="305" y1="92" y2="80"/>
<line fill="#000000" stroke="#000000" stroke-width="1" x1="298" x2="305" y1="92" y2="80"/>
<text font-family="Lucida Grande" font-size="13" x="313" y="108">
has</text>
</svg>
