<?xml version="1.0" encoding="utf-8" ?>
<!DOCTYPE svg PUBLIC "-//W3C//DTD SVG 1.1//EN" "http://www.w3.org/Graphics/SVG/1.1/DTD/svg11.dtd">
<svg height="940" version="1.1" width="1212" xmlns="http://www.w3.org/2000/svg">
<polygon fill="#ffffff" points="14,14 1148,14 1148,38 1197,38 1197,925 14,925 14,14" stroke="#ffffff" stroke-width="1"/>
<rect fill="none" height="24" stroke="#000000" stroke-width="1" width="1134" x="14" y="14"/>
<text font-family="Lucida Grande" font-size="13" x="19" y="28">
problems</text>
<rect fill="none" height="887" stroke="#000000" stroke-width="1" width="1183" x="14" y="38"/>
<rect fill="#ffffff" height="155" stroke="#ffffff" stroke-width="1" width="334" x="350" y="742"/>
<rect fill="none" height="155" stroke="#000000" stroke-width="1" width="334" x="350" y="742"/>
<text font-family="Lucida Grande" font-size="13" x="491" y="776">
Problem</text>
<text font-family="Lucida Grande" font-size="13" x="469" y="757">
&lt;&lt;interface&gt;&gt;</text>
<rect fill="#000000" height="1" stroke="#000000" stroke-width="1" width="334" x="350" y="786"/>
<text font-family="Lucida Grande" font-size="13" font-style="italic" x="354" y="801">
evaluate(SolutionType) : Evaluation</text>
<text font-family="Lucida Grande" font-size="13" font-style="italic" x="354" y="818">
evaluate(Move,SolutionType,Evaluation) : Evaluation</text>
<text font-family="Lucida Grande" font-size="13" font-style="italic" x="354" y="835">
validate(SolutionType) : Validation</text>
<text font-family="Lucida Grande" font-size="13" font-style="italic" x="354" y="852">
validate(Move,SolutionType,Validation) : Validation</text>
<text font-family="Lucida Grande" font-size="13" font-style="italic" x="354" y="869">
isMinimizing() : boolean</text>
<text font-family="Lucida Grande" font-size="13" font-style="italic" x="354" y="886">
createRandomSolution() : SolutionType</text>
<rect fill="#ffffff" height="262" stroke="#ffffff" stroke-width="1" width="490" x="318" y="422"/>
<rect fill="none" height="262" stroke="#000000" stroke-width="1" width="490" x="318" y="422"/>
<text font-family="Lucida Grande" font-size="13" font-style="italic" x="511" y="436">
AbstractProblem</text>
<rect fill="#000000" height="1" stroke="#000000" stroke-width="1" width="490" x="318" y="446"/>
<text font-family="Lucida Grande" font-size="13" x="322" y="461">
objective : Objective</text>
<text font-family="Lucida Grande" font-size="13" x="322" y="478">
mandatoryConstraints : Collection</text>
<text font-family="Lucida Grande" font-size="13" x="322" y="495">
penalizingConstraints : Collection</text>
<text font-family="Lucida Grande" font-size="13" x="322" y="512">
data : DataType</text>
<rect fill="#000000" height="1" stroke="#000000" stroke-width="1" width="490" x="318" y="522"/>
<text font-family="Lucida Grande" font-size="13" x="322" y="537">
addMandatoryConstraint(Constraint) : void</text>
<text font-family="Lucida Grande" font-size="13" x="322" y="554">
removeMandatoryConstraint(Constraint) : boolean</text>
<text font-family="Lucida Grande" font-size="13" x="322" y="571">
addPenalizingConstraint(PenalizingConstraint) : void</text>
<text font-family="Lucida Grande" font-size="13" x="322" y="588">
removePenalizingConstraint(PenalizingConstraint) : boolean</text>
<text font-family="Lucida Grande" font-size="13" x="322" y="605">
setObjective(Objective) : void</text>
<text font-family="Lucida Grande" font-size="13" x="322" y="622">
getObjective() : Objective</text>
<text font-family="Lucida Grande" font-size="13" x="322" y="639">
setData(DataType) : void</text>
<text font-family="Lucida Grande" font-size="13" x="322" y="656">
getData() : DataType</text>
<text font-family="Lucida Grande" font-size="13" x="322" y="673">
getViolatedConstraints(SolutionType) : Collection</text>
<line fill="#000000" stroke="#000000" stroke-width="1" x1="518" x2="518" y1="683" y2="688"/>
<line fill="#000000" stroke="#000000" stroke-width="1" x1="518" x2="518" y1="693" y2="698"/>
<line fill="#000000" stroke="#000000" stroke-width="1" x1="518" x2="518" y1="703" y2="708"/>
<line fill="#000000" stroke="#000000" stroke-width="1" x1="518" x2="518" y1="713" y2="718"/>
<line fill="#000000" stroke="#000000" stroke-width="1" x1="518" x2="518" y1="723" y2="728"/>
<line fill="#000000" stroke="#000000" stroke-width="1" x1="518" x2="518" y1="733" y2="738"/>
<polygon fill="#ffffff" points="518,742 511,730 525,730" stroke="#ffffff" stroke-width="1"/>
<polygon fill="none" points="518,742 511,730 525,730" stroke="#000000" stroke-width="1"/>
<polygon fill="#ffffff" points="726,70 1116,70 1116,94 1165,94 1165,357 726,357 726,70" stroke="#ffffff" stroke-width="1"/>
<rect fill="none" height="24" stroke="#000000" stroke-width="1" width="390" x="726" y="70"/>
<text font-family="Lucida Grande" font-size="13" x="731" y="84">
objectives</text>
<rect fill="none" height="263" stroke="#000000" stroke-width="1" width="439" x="726" y="94"/>
<rect fill="#ffffff" height="104" stroke="#ffffff" stroke-width="1" width="396" x="750" y="230"/>
<rect fill="none" height="104" stroke="#000000" stroke-width="1" width="396" x="750" y="230"/>
<text font-family="Lucida Grande" font-size="13" x="918" y="264">
Objective</text>
<text font-family="Lucida Grande" font-size="13" x="900" y="245">
&lt;&lt;interface&gt;&gt;</text>
<rect fill="#000000" height="1" stroke="#000000" stroke-width="1" width="396" x="750" y="274"/>
<text font-family="Lucida Grande" font-size="13" font-style="italic" x="754" y="289">
evaluate(SolutionType,DataType) : Evaluation</text>
<text font-family="Lucida Grande" font-size="13" font-style="italic" x="754" y="306">
evaluate(Move,SolutionType,Evaluation,DataType) : Evaluation</text>
<text font-family="Lucida Grande" font-size="13" font-style="italic" x="754" y="323">
isMinimizing() : boolean</text>
<polyline fill="none" points="782,422 782,333" stroke="#000000" stroke-width="1"/>
<line fill="#000000" stroke="#000000" stroke-width="1" x1="789" x2="782" y1="345" y2="333"/>
<line fill="#000000" stroke="#000000" stroke-width="1" x1="775" x2="782" y1="345" y2="333"/>
<polygon fill="#ffffff" points="54,70 628,70 628,94 677,94 677,357 54,357 54,70" stroke="#ffffff" stroke-width="1"/>
<rect fill="none" height="24" stroke="#000000" stroke-width="1" width="574" x="54" y="70"/>
<text font-family="Lucida Grande" font-size="13" x="59" y="84">
constraints</text>
<rect fill="none" height="263" stroke="#000000" stroke-width="1" width="623" x="54" y="94"/>
<rect fill="#ffffff" height="87" stroke="#ffffff" stroke-width="1" width="390" x="262" y="118"/>
<rect fill="none" height="87" stroke="#000000" stroke-width="1" width="390" x="262" y="118"/>
<text font-family="Lucida Grande" font-size="13" x="424" y="152">
Constraint</text>
<text font-family="Lucida Grande" font-size="13" x="409" y="133">
&lt;&lt;interface&gt;&gt;</text>
<rect fill="#000000" height="1" stroke="#000000" stroke-width="1" width="390" x="262" y="162"/>
<text font-family="Lucida Grande" font-size="13" font-style="italic" x="266" y="177">
validate(SolutionType,DataType) : Validation</text>
<text font-family="Lucida Grande" font-size="13" font-style="italic" x="266" y="194">
validate(Move,SolutionType,Validation,DataType) : Validation</text>
<rect fill="#ffffff" height="66" stroke="#ffffff" stroke-width="1" width="176" x="286" y="264"/>
<rect fill="none" height="66" stroke="#000000" stroke-width="1" width="176" x="286" y="264"/>
<text font-family="Lucida Grande" font-size="13" x="309" y="298">
PenalizingConstraint</text>
<text font-family="Lucida Grande" font-size="13" x="326" y="279">
&lt;&lt;interface&gt;&gt;</text>
<rect fill="#000000" height="1" stroke="#000000" stroke-width="1" width="176" x="286" y="308"/>
<polyline fill="none" points="374,264 374,204" stroke="#000000" stroke-width="1"/>
<polygon fill="#ffffff" points="374,204 381,216 367,216" stroke="#ffffff" stroke-width="1"/>
<polygon fill="none" points="374,204 381,216 367,216" stroke="#000000" stroke-width="1"/>
<polyline fill="none" points="374,422 374,329" stroke="#000000" stroke-width="1"/>
<line fill="#000000" stroke="#000000" stroke-width="1" x1="381" x2="374" y1="341" y2="329"/>
<line fill="#000000" stroke="#000000" stroke-width="1" x1="367" x2="374" y1="341" y2="329"/>
<rect fill="#ffffff" height="122" stroke="#ffffff" stroke-width="1" width="226" x="742" y="758"/>
<rect fill="none" height="122" stroke="#000000" stroke-width="1" width="226" x="742" y="758"/>
<text font-family="Lucida Grande" font-size="13" font-style="italic" x="829" y="772">
Solution</text>
<rect fill="#000000" height="1" stroke="#000000" stroke-width="1" width="226" x="742" y="782"/>
<rect fill="#000000" height="1" stroke="#000000" stroke-width="1" width="226" x="742" y="803"/>
<text font-family="Lucida Grande" font-size="13" font-style="italic" x="746" y="818">
equals(Object) : boolean</text>
<text font-family="Lucida Grande" font-size="13" font-style="italic" x="746" y="835">
hashCode() : int</text>
<text font-family="Lucida Grande" font-size="13" font-style="italic" x="746" y="852">
copy() : Solution</text>
<line fill="#000000" stroke="#000000" stroke-width="1" x1="746" x2="866" y1="870" y2="870"/>
<text font-family="Lucida Grande" font-size="13" x="746" y="869">
checkedCopy(T) : T</text>
<polyline fill="none" points="683,822 742,822" stroke="#000000" stroke-width="1"/>
<line fill="#000000" stroke="#000000" stroke-width="1" x1="730" x2="742" y1="829" y2="822"/>
<line fill="#000000" stroke="#000000" stroke-width="1" x1="730" x2="742" y1="815" y2="822"/>
<polygon fill="#ffffff" points="878,662 1135,662 1145,672 1145,733 878,733 878,662" stroke="#ffffff" stroke-width="1"/>
<polyline fill="none" points="878,662 1135,662 1145,672 1145,733 878,733 878,662" stroke="#000000" stroke-width="1"/>
<polygon fill="#ffffff" points="1135,662 1145,672 1135,672 1135,662" stroke="#ffffff" stroke-width="1"/>
<polyline fill="none" points="1135,662 1145,672 1135,672 1135,662" stroke="#000000" stroke-width="1"/>
<text font-family="Lucida Grande" font-size="13" x="881" y="678">
methods equals(Object) and hashCode()</text>
<text font-family="Lucida Grande" font-size="13" x="881" y="694">
are overriden to be abstract so that all</text>
<text font-family="Lucida Grande" font-size="13" x="881" y="710">
subclasses are required to provide</text>
<text font-family="Lucida Grande" font-size="13" x="881" y="726">
appropriate implementations</text>
<line fill="#000000" stroke="#000000" stroke-width="1" x1="926" x2="926" y1="734" y2="739"/>
<line fill="#000000" stroke="#000000" stroke-width="1" x1="926" x2="926" y1="744" y2="749"/>
<line fill="#000000" stroke="#000000" stroke-width="1" x1="926" x2="926" y1="754" y2="758"/>
<rect fill="#ffffff" height="70" stroke="#ffffff" stroke-width="1" width="126" x="885" y="122"/>
<rect fill="none" height="70" stroke="#000000" stroke-width="1" width="126" x="885" y="122"/>
<text font-family="Lucida Grande" font-size="13" x="915" y="156">
Evaluation</text>
<text font-family="Lucida Grande" font-size="13" x="900" y="137">
&lt;&lt;interface&gt;&gt;</text>
<rect fill="#000000" height="1" stroke="#000000" stroke-width="1" width="126" x="885" y="166"/>
<text font-family="Lucida Grande" font-size="13" font-style="italic" x="889" y="181">
getValue() : double</text>
<polyline fill="none" points="942,230 942,191" stroke="#000000" stroke-width="1"/>
<line fill="#000000" stroke="#000000" stroke-width="1" x1="949" x2="942" y1="203" y2="191"/>
<line fill="#000000" stroke="#000000" stroke-width="1" x1="935" x2="942" y1="203" y2="191"/>
<rect fill="#ffffff" height="70" stroke="#ffffff" stroke-width="1" width="122" x="86" y="126"/>
<rect fill="none" height="70" stroke="#000000" stroke-width="1" width="122" x="86" y="126"/>
<text font-family="Lucida Grande" font-size="13" x="115" y="160">
Validation</text>
<text font-family="Lucida Grande" font-size="13" x="99" y="141">
&lt;&lt;interface&gt;&gt;</text>
<rect fill="#000000" height="1" stroke="#000000" stroke-width="1" width="122" x="86" y="170"/>
<text font-family="Lucida Grande" font-size="13" font-style="italic" x="90" y="185">
passed() : boolean</text>
<rect fill="#ffffff" height="70" stroke="#ffffff" stroke-width="1" width="138" x="78" y="262"/>
<rect fill="none" height="70" stroke="#000000" stroke-width="1" width="138" x="78" y="262"/>
<text font-family="Lucida Grande" font-size="13" x="83" y="296">
PenalizingValidation</text>
<text font-family="Lucida Grande" font-size="13" x="99" y="277">
&lt;&lt;interface&gt;&gt;</text>
<rect fill="#000000" height="1" stroke="#000000" stroke-width="1" width="138" x="78" y="306"/>
<text font-family="Lucida Grande" font-size="13" font-style="italic" x="82" y="321">
getPenalty() : double</text>
<polyline fill="none" points="150,262 150,195" stroke="#000000" stroke-width="1"/>
<polygon fill="#ffffff" points="150,195 157,207 143,207" stroke="#ffffff" stroke-width="1"/>
<polygon fill="none" points="150,195 157,207 143,207" stroke="#000000" stroke-width="1"/>
<polyline fill="none" points="534,422 534,204" stroke="#000000" stroke-width="1"/>
<line fill="#000000" stroke="#000000" stroke-width="1" x1="541" x2="534" y1="216" y2="204"/>
<line fill="#000000" stroke="#000000" stroke-width="1" x1="527" x2="534" y1="216" y2="204"/>
<polyline fill="none" points="286,286 215,286" stroke="#000000" stroke-width="1"/>
<line fill="#000000" stroke="#000000" stroke-width="1" x1="227" x2="215" y1="279" y2="286"/>
<line fill="#000000" stroke="#000000" stroke-width="1" x1="227" x2="215" y1="293" y2="286"/>
<polyline fill="none" points="262,150 207,150" stroke="#000000" stroke-width="1"/>
<line fill="#000000" stroke="#000000" stroke-width="1" x1="219" x2="207" y1="143" y2="150"/>
<line fill="#000000" stroke="#000000" stroke-width="1" x1="219" x2="207" y1="157" y2="150"/>
</svg>
