<?xml version="1.0" encoding="utf-8" ?>
<!DOCTYPE svg PUBLIC "-//W3C//DTD SVG 1.1//EN" "http://www.w3.org/Graphics/SVG/1.1/DTD/svg11.dtd">
<svg height="820" version="1.1" width="884" xmlns="http://www.w3.org/2000/svg">
<polygon fill="#ffffff" points="14,14 820,14 820,38 869,38 869,805 14,805 14,14" stroke="#ffffff" stroke-width="1"/>
<rect fill="none" height="24" stroke="#000000" stroke-width="1" width="806" x="14" y="14"/>
<text font-family="Lucida Grande" font-size="13" x="19" y="28">
problems</text>
<rect fill="none" height="767" stroke="#000000" stroke-width="1" width="855" x="14" y="38"/>
<rect fill="#ffffff" height="122" stroke="#ffffff" stroke-width="1" width="252" x="215" y="662"/>
<rect fill="none" height="122" stroke="#000000" stroke-width="1" width="252" x="215" y="662"/>
<text font-family="Lucida Grande" font-size="13" x="315" y="696">
Problem</text>
<text font-family="Lucida Grande" font-size="13" x="293" y="677">
&lt;&lt;interface&gt;&gt;</text>
<rect fill="#000000" height="1" stroke="#000000" stroke-width="1" width="252" x="215" y="706"/>
<text font-family="Lucida Grande" font-size="13" font-style="italic" x="219" y="721">
evaluate(SolutionType) : double</text>
<text font-family="Lucida Grande" font-size="13" font-style="italic" x="219" y="738">
createRandomSolution() : SolutionType</text>
<text font-family="Lucida Grande" font-size="13" font-style="italic" x="219" y="755">
isMinimizing() : boolean</text>
<text font-family="Lucida Grande" font-size="13" font-style="italic" x="219" y="772">
rejectSolution(SolutionType) : boolean</text>
<rect fill="#ffffff" height="262" stroke="#ffffff" stroke-width="1" width="386" x="148" y="352"/>
<rect fill="none" height="262" stroke="#000000" stroke-width="1" width="386" x="148" y="352"/>
<text font-family="Lucida Grande" font-size="13" font-style="italic" x="289" y="366">
AbstractProblem</text>
<rect fill="#000000" height="1" stroke="#000000" stroke-width="1" width="386" x="148" y="376"/>
<text font-family="Lucida Grande" font-size="13" x="152" y="391">
objective : Objective</text>
<text font-family="Lucida Grande" font-size="13" x="152" y="408">
rejectingConstraints : Collection</text>
<text font-family="Lucida Grande" font-size="13" x="152" y="425">
penalizingConstraints : Collection</text>
<text font-family="Lucida Grande" font-size="13" x="152" y="442">
data : DataType</text>
<rect fill="#000000" height="1" stroke="#000000" stroke-width="1" width="386" x="148" y="452"/>
<text font-family="Lucida Grande" font-size="13" x="152" y="467">
addRejectingConstraint(Constraint) : void</text>
<text font-family="Lucida Grande" font-size="13" x="152" y="484">
removeRejectingConstraint(Constraint) : boolean</text>
<text font-family="Lucida Grande" font-size="13" x="152" y="501">
addPenalizingConstraint(PenalizingConstraint) : void</text>
<text font-family="Lucida Grande" font-size="13" x="152" y="518">
removePenalizingConstraint(PenalizingConstraint) : boolean</text>
<text font-family="Lucida Grande" font-size="13" x="152" y="535">
setObjective(Objective) : void</text>
<text font-family="Lucida Grande" font-size="13" x="152" y="552">
getObjective() : Objective</text>
<text font-family="Lucida Grande" font-size="13" x="152" y="569">
setData(DataType) : void</text>
<text font-family="Lucida Grande" font-size="13" x="152" y="586">
getData() : DataType</text>
<text font-family="Lucida Grande" font-size="13" x="152" y="603">
getViolatedConstraints(SolutionType) : Set</text>
<line fill="#000000" stroke="#000000" stroke-width="1" x1="345" x2="345" y1="613" y2="618"/>
<line fill="#000000" stroke="#000000" stroke-width="1" x1="345" x2="345" y1="623" y2="628"/>
<line fill="#000000" stroke="#000000" stroke-width="1" x1="345" x2="345" y1="633" y2="638"/>
<line fill="#000000" stroke="#000000" stroke-width="1" x1="345" x2="345" y1="643" y2="648"/>
<line fill="#000000" stroke="#000000" stroke-width="1" x1="345" x2="345" y1="653" y2="658"/>
<polygon fill="#ffffff" points="345,662 338,650 352,650" stroke="#ffffff" stroke-width="1"/>
<polygon fill="none" points="345,662 338,650 352,650" stroke="#000000" stroke-width="1"/>
<polygon fill="#ffffff" points="464,118 742,118 742,142 791,142 791,277 464,277 464,118" stroke="#ffffff" stroke-width="1"/>
<rect fill="none" height="24" stroke="#000000" stroke-width="1" width="278" x="464" y="118"/>
<text font-family="Lucida Grande" font-size="13" x="469" y="132">
objectives</text>
<rect fill="none" height="135" stroke="#000000" stroke-width="1" width="327" x="464" y="142"/>
<rect fill="#ffffff" height="87" stroke="#ffffff" stroke-width="1" width="270" x="492" y="166"/>
<rect fill="none" height="87" stroke="#000000" stroke-width="1" width="270" x="492" y="166"/>
<text font-family="Lucida Grande" font-size="13" x="597" y="200">
Objective</text>
<text font-family="Lucida Grande" font-size="13" x="579" y="181">
&lt;&lt;interface&gt;&gt;</text>
<rect fill="#000000" height="1" stroke="#000000" stroke-width="1" width="270" x="492" y="210"/>
<text font-family="Lucida Grande" font-size="13" font-style="italic" x="496" y="225">
evaluate(SolutionType,DataType) : double</text>
<text font-family="Lucida Grande" font-size="13" font-style="italic" x="496" y="242">
isMinimizing() : boolean</text>
<polyline fill="none" points="518,352 518,252" stroke="#000000" stroke-width="1"/>
<line fill="#000000" stroke="#000000" stroke-width="1" x1="525" x2="518" y1="264" y2="252"/>
<line fill="#000000" stroke="#000000" stroke-width="1" x1="511" x2="518" y1="264" y2="252"/>
<polygon fill="#ffffff" points="38,62 396,62 396,86 445,86 445,309 38,309 38,62" stroke="#ffffff" stroke-width="1"/>
<rect fill="none" height="24" stroke="#000000" stroke-width="1" width="358" x="38" y="62"/>
<text font-family="Lucida Grande" font-size="13" x="43" y="76">
constraints</text>
<rect fill="none" height="223" stroke="#000000" stroke-width="1" width="407" x="38" y="86"/>
<rect fill="#ffffff" height="70" stroke="#ffffff" stroke-width="1" width="288" x="134" y="110"/>
<rect fill="none" height="70" stroke="#000000" stroke-width="1" width="288" x="134" y="110"/>
<text font-family="Lucida Grande" font-size="13" x="245" y="144">
Constraint</text>
<text font-family="Lucida Grande" font-size="13" x="230" y="125">
&lt;&lt;interface&gt;&gt;</text>
<rect fill="#000000" height="1" stroke="#000000" stroke-width="1" width="288" x="134" y="154"/>
<text font-family="Lucida Grande" font-size="13" font-style="italic" x="138" y="169">
isSatisfied(SolutionType,DataType) : boolean</text>
<rect fill="#ffffff" height="70" stroke="#ffffff" stroke-width="1" width="317" x="62" y="214"/>
<rect fill="none" height="70" stroke="#000000" stroke-width="1" width="317" x="62" y="214"/>
<text font-family="Lucida Grande" font-size="13" x="155" y="248">
PenalizingConstraint</text>
<text font-family="Lucida Grande" font-size="13" x="173" y="229">
&lt;&lt;interface&gt;&gt;</text>
<rect fill="#000000" height="1" stroke="#000000" stroke-width="1" width="317" x="62" y="258"/>
<text font-family="Lucida Grande" font-size="13" font-style="italic" x="66" y="273">
computePenalty(SolutionType,DataType) : double</text>
<polyline fill="none" points="262,214 262,179" stroke="#000000" stroke-width="1"/>
<polygon fill="#ffffff" points="262,179 269,191 255,191" stroke="#ffffff" stroke-width="1"/>
<polygon fill="none" points="262,179 269,191 255,191" stroke="#000000" stroke-width="1"/>
<polyline fill="none" points="398,352 398,179" stroke="#000000" stroke-width="1"/>
<line fill="#000000" stroke="#000000" stroke-width="1" x1="405" x2="398" y1="191" y2="179"/>
<line fill="#000000" stroke="#000000" stroke-width="1" x1="391" x2="398" y1="191" y2="179"/>
<polyline fill="none" points="262,352 262,283" stroke="#000000" stroke-width="1"/>
<line fill="#000000" stroke="#000000" stroke-width="1" x1="269" x2="262" y1="295" y2="283"/>
<line fill="#000000" stroke="#000000" stroke-width="1" x1="255" x2="262" y1="295" y2="283"/>
<rect fill="#ffffff" height="122" stroke="#ffffff" stroke-width="1" width="226" x="518" y="662"/>
<rect fill="none" height="122" stroke="#000000" stroke-width="1" width="226" x="518" y="662"/>
<text font-family="Lucida Grande" font-size="13" font-style="italic" x="605" y="676">
Solution</text>
<rect fill="#000000" height="1" stroke="#000000" stroke-width="1" width="226" x="518" y="686"/>
<rect fill="#000000" height="1" stroke="#000000" stroke-width="1" width="226" x="518" y="707"/>
<text font-family="Lucida Grande" font-size="13" font-style="italic" x="522" y="722">
equals(Object) : boolean</text>
<text font-family="Lucida Grande" font-size="13" font-style="italic" x="522" y="739">
hashCode() : int</text>
<text font-family="Lucida Grande" font-size="13" font-style="italic" x="522" y="756">
copy() : Solution</text>
<line fill="#000000" stroke="#000000" stroke-width="1" x1="522" x2="642" y1="774" y2="774"/>
<text font-family="Lucida Grande" font-size="13" x="522" y="773">
checkedCopy(T) : T</text>
<polyline fill="none" points="466,726 518,726" stroke="#000000" stroke-width="1"/>
<line fill="#000000" stroke="#000000" stroke-width="1" x1="506" x2="518" y1="733" y2="726"/>
<line fill="#000000" stroke="#000000" stroke-width="1" x1="506" x2="518" y1="719" y2="726"/>
<polygon fill="#ffffff" points="582,542 839,542 849,552 849,613 582,613 582,542" stroke="#ffffff" stroke-width="1"/>
<polyline fill="none" points="582,542 839,542 849,552 849,613 582,613 582,542" stroke="#000000" stroke-width="1"/>
<polygon fill="#b2b2b2" points="839,542 849,552 839,552 839,542" stroke="#b2b2b2" stroke-width="1"/>
<polyline fill="none" points="839,542 849,552 839,552 839,542" stroke="#000000" stroke-width="1"/>
<text font-family="Lucida Grande" font-size="13" x="585" y="558">
methods equals(Object) and hashCode()</text>
<text font-family="Lucida Grande" font-size="13" x="585" y="574">
are overriden to be abstract so that all</text>
<text font-family="Lucida Grande" font-size="13" x="585" y="590">
subclasses are required to provide</text>
<text font-family="Lucida Grande" font-size="13" x="585" y="606">
appropriate implementations</text>
<line fill="#000000" stroke="#000000" stroke-width="1" x1="630" x2="630" y1="614" y2="619"/>
<line fill="#000000" stroke="#000000" stroke-width="1" x1="630" x2="630" y1="624" y2="629"/>
<line fill="#000000" stroke="#000000" stroke-width="1" x1="630" x2="630" y1="634" y2="639"/>
<line fill="#000000" stroke="#000000" stroke-width="1" x1="630" x2="630" y1="644" y2="649"/>
<line fill="#000000" stroke="#000000" stroke-width="1" x1="630" x2="630" y1="654" y2="659"/>
</svg>
