<?xml version="1.0" encoding="utf-8" ?>
<!DOCTYPE svg PUBLIC "-//W3C//DTD SVG 1.1//EN" "http://www.w3.org/Graphics/SVG/1.1/DTD/svg11.dtd">
<svg height="1660" version="1.1" width="1188" xmlns="http://www.w3.org/2000/svg">
<polygon fill="#ffffff" points="14,14 1124,14 1124,38 1173,38 1173,1645 14,1645 14,14" stroke="#ffffff" stroke-width="1"/>
<rect fill="none" height="24" stroke="#000000" stroke-width="1" width="1110" x="14" y="14"/>
<text font-family="Lucida Grande" font-size="13" x="19" y="28">
search</text>
<rect fill="none" height="1607" stroke="#000000" stroke-width="1" width="1159" x="14" y="38"/>
<rect fill="#ffffff" height="704" stroke="#ffffff" stroke-width="1" width="425" x="654" y="318"/>
<rect fill="none" height="704" stroke="#000000" stroke-width="1" width="425" x="654" y="318"/>
<text font-family="Lucida Grande" font-size="13" font-style="italic" x="839" y="332">
+ Search</text>
<rect fill="#000000" height="1" stroke="#000000" stroke-width="1" width="425" x="654" y="342"/>
<text font-family="Lucida Grande" font-size="13" x="658" y="357">
-problem : Problem</text>
<text font-family="Lucida Grande" font-size="13" x="658" y="374">
-startTime : long</text>
<text font-family="Lucida Grande" font-size="13" x="658" y="391">
-bestSolution : SolutionType</text>
<text font-family="Lucida Grande" font-size="13" x="658" y="408">
-bestSolutionEvaluation : Evaluation</text>
<text font-family="Lucida Grande" font-size="13" x="658" y="425">
-bestSolutionValidation : Validation</text>
<text font-family="Lucida Grande" font-size="13" x="658" y="442">
-searchListeners : List</text>
<text font-family="Lucida Grande" font-size="13" x="658" y="459">
-status : SearchStatus</text>
<text font-family="Lucida Grande" font-size="13" x="658" y="476">
-stopCriterionChecker : StopCriterionChecker</text>
<text font-family="Lucida Grande" font-size="13" x="658" y="493">
-currentSteps : long</text>
<text font-family="Lucida Grande" font-size="13" x="658" y="510">
-lastImprovementTime : long</text>
<text font-family="Lucida Grande" font-size="13" x="658" y="527">
-stepsSinceLastImprovement : long</text>
<text font-family="Lucida Grande" font-size="13" x="658" y="544">
-minDelta : double</text>
<rect fill="#000000" height="1" stroke="#000000" stroke-width="1" width="425" x="654" y="554"/>
<text font-family="Lucida Grande" font-size="13" font-style="italic" x="658" y="569">
#searchStep() : void</text>
<text font-family="Lucida Grande" font-size="13" x="658" y="586">
#searchStarted() : void</text>
<text font-family="Lucida Grande" font-size="13" x="658" y="603">
#searchStopped() : void</text>
<text font-family="Lucida Grande" font-size="13" x="658" y="620">
#searchDisposed() : void</text>
<text font-family="Lucida Grande" font-size="13" x="658" y="637">
+start() : void</text>
<text font-family="Lucida Grande" font-size="13" x="658" y="654">
+stop() : void</text>
<text font-family="Lucida Grande" font-size="13" x="658" y="671">
+dispose() : void</text>
<text font-family="Lucida Grande" font-size="13" x="658" y="688">
+setStopCriterionCheckPeriod(long,TimeUnit) : void</text>
<text font-family="Lucida Grande" font-size="13" x="658" y="705">
+addStopCriterion(StopCriterion) : void</text>
<text font-family="Lucida Grande" font-size="13" x="658" y="722">
+removeStopCriterion(StopCriterion) : boolean</text>
<text font-family="Lucida Grande" font-size="13" x="658" y="739">
+addSearchListener(SearchListener) : boolean</text>
<text font-family="Lucida Grande" font-size="13" x="658" y="756">
+removeSearchListener(SearchListener) : boolean</text>
<text font-family="Lucida Grande" font-size="13" x="658" y="773">
+getStatus() : SearchStatus</text>
<text font-family="Lucida Grande" font-size="13" x="658" y="790">
+getRuntime() : long</text>
<text font-family="Lucida Grande" font-size="13" x="658" y="807">
+getSteps() : long</text>
<text font-family="Lucida Grande" font-size="13" x="658" y="824">
+getTimeWithoutImprovement() : long</text>
<text font-family="Lucida Grande" font-size="13" x="658" y="841">
+getStepsWithoutImprovement() : long</text>
<text font-family="Lucida Grande" font-size="13" x="658" y="858">
+getMinDelta() : double</text>
<text font-family="Lucida Grande" font-size="13" x="658" y="875">
+getBestSolution() : SolutionType</text>
<text font-family="Lucida Grande" font-size="13" x="658" y="892">
+getBestSolutionEvaluation() : Evaluation</text>
<text font-family="Lucida Grande" font-size="13" x="658" y="909">
+getBestSolutionValidation() : Validation</text>
<text font-family="Lucida Grande" font-size="13" x="658" y="926">
#updateBestSolution(SolutionType) : boolean</text>
<text font-family="Lucida Grande" font-size="13" x="658" y="943">
#updateBestSolution(SolutionType,Evaluation,Validation) : boolean</text>
<text font-family="Lucida Grande" font-size="13" x="658" y="960">
+getProblem() : Problem</text>
<text font-family="Lucida Grande" font-size="13" x="658" y="977">
+getName() : String</text>
<text font-family="Lucida Grande" font-size="13" x="658" y="994">
+getID() : int</text>
<text font-family="Lucida Grande" font-size="13" x="658" y="1011">
#computeDelta(double,double) : double</text>
<rect fill="#ffffff" height="262" stroke="#ffffff" stroke-width="1" width="348" x="434" y="1358"/>
<rect fill="none" height="262" stroke="#000000" stroke-width="1" width="348" x="434" y="1358"/>
<text font-family="Lucida Grande" font-size="13" font-style="italic" x="531" y="1372">
+ NeighbourhoodSearch</text>
<rect fill="#000000" height="1" stroke="#000000" stroke-width="1" width="348" x="434" y="1382"/>
<text font-family="Lucida Grande" font-size="13" x="438" y="1397">
-acceptedMoves : long</text>
<text font-family="Lucida Grande" font-size="13" x="438" y="1414">
-rejectedMoves : long</text>
<text font-family="Lucida Grande" font-size="13" x="438" y="1431">
-cache : EvaluatedMoveCache</text>
<rect fill="#000000" height="1" stroke="#000000" stroke-width="1" width="348" x="434" y="1441"/>
<text font-family="Lucida Grande" font-size="13" x="438" y="1456">
+getNumAcceptedMoves() : long</text>
<text font-family="Lucida Grande" font-size="13" x="438" y="1473">
+getNumRejectedMoves() : long</text>
<text font-family="Lucida Grande" font-size="13" x="438" y="1490">
#evaluateMove(Move) : Evaluation</text>
<text font-family="Lucida Grande" font-size="13" x="438" y="1507">
#validateMove(Move) : Validation</text>
<text font-family="Lucida Grande" font-size="13" x="438" y="1524">
#getBestMove(Collection,boolean,Predicate...) : Move</text>
<text font-family="Lucida Grande" font-size="13" x="438" y="1541">
#isImprovement(Move) : boolean</text>
<text font-family="Lucida Grande" font-size="13" x="438" y="1558">
#acceptMove(Move) : boolean</text>
<text font-family="Lucida Grande" font-size="13" x="438" y="1575">
#rejectMove() : void</text>
<text font-family="Lucida Grande" font-size="13" x="438" y="1592">
#incNumAcceptedMoves(long) : void</text>
<text font-family="Lucida Grande" font-size="13" x="438" y="1609">
#incNumRejectedMoves(long) : void</text>
<rect fill="#ffffff" height="92" stroke="#ffffff" stroke-width="1" width="282" x="69" y="1366"/>
<rect fill="none" height="92" stroke="#000000" stroke-width="1" width="282" x="69" y="1366"/>
<text font-family="Lucida Grande" font-size="13" font-style="italic" x="114" y="1380">
+ SingleNeighbourhoodSearch</text>
<rect fill="#000000" height="1" stroke="#000000" stroke-width="1" width="282" x="69" y="1390"/>
<text font-family="Lucida Grande" font-size="13" x="73" y="1405">
-neigh : Neighbourhood</text>
<rect fill="#000000" height="1" stroke="#000000" stroke-width="1" width="282" x="69" y="1415"/>
<text font-family="Lucida Grande" font-size="13" x="73" y="1430">
+setNeighbourhood(Neighbourhood) : void</text>
<text font-family="Lucida Grande" font-size="13" x="73" y="1447">
+getNeighbourhood() : Neighbourhood</text>
<rect fill="#ffffff" height="92" stroke="#ffffff" stroke-width="1" width="266" x="77" y="1478"/>
<rect fill="none" height="92" stroke="#000000" stroke-width="1" width="266" x="77" y="1478"/>
<text font-family="Lucida Grande" font-size="13" font-style="italic" x="117" y="1492">
+ MultiNeighbourhoodSearch</text>
<rect fill="#000000" height="1" stroke="#000000" stroke-width="1" width="266" x="77" y="1502"/>
<text font-family="Lucida Grande" font-size="13" x="81" y="1517">
-neighs : List</text>
<rect fill="#000000" height="1" stroke="#000000" stroke-width="1" width="266" x="77" y="1527"/>
<text font-family="Lucida Grande" font-size="13" x="81" y="1542">
+setNeighbourhoods(List) : void</text>
<text font-family="Lucida Grande" font-size="13" x="81" y="1559">
+getNeighbourhoods() : List</text>
<polyline fill="none" points="342,1515 434,1515" stroke="#000000" stroke-width="1"/>
<polygon fill="#ffffff" points="434,1515 422,1522 422,1508" stroke="#ffffff" stroke-width="1"/>
<polygon fill="none" points="434,1515 422,1522 422,1508" stroke="#000000" stroke-width="1"/>
<polygon fill="#ffffff" points="38,446 556,446 556,470 605,470 605,933 38,933 38,446" stroke="#ffffff" stroke-width="1"/>
<rect fill="none" height="24" stroke="#000000" stroke-width="1" width="518" x="38" y="446"/>
<text font-family="Lucida Grande" font-size="13" x="43" y="460">
stopcriteria</text>
<rect fill="none" height="463" stroke="#000000" stroke-width="1" width="567" x="38" y="470"/>
<rect fill="#ffffff" height="67" stroke="#ffffff" stroke-width="1" width="112" x="302" y="846"/>
<rect fill="none" height="67" stroke="#000000" stroke-width="1" width="112" x="302" y="846"/>
<text font-family="Lucida Grande" font-size="13" x="312" y="860">
+ MaxRuntime</text>
<rect fill="#000000" height="1" stroke="#000000" stroke-width="1" width="112" x="302" y="870"/>
<rect fill="#000000" height="1" stroke="#000000" stroke-width="1" width="112" x="302" y="891"/>
<rect fill="#ffffff" height="68" stroke="#ffffff" stroke-width="1" width="125" x="54" y="684"/>
<rect fill="none" height="68" stroke="#000000" stroke-width="1" width="125" x="54" y="684"/>
<text font-family="Lucida Grande" font-size="13" x="81" y="698">
+ MinDelta</text>
<rect fill="#000000" height="1" stroke="#000000" stroke-width="1" width="125" x="54" y="708"/>
<rect fill="#000000" height="1" stroke="#000000" stroke-width="1" width="125" x="54" y="729"/>
<rect fill="#ffffff" height="68" stroke="#ffffff" stroke-width="1" width="226" x="126" y="494"/>
<rect fill="none" height="68" stroke="#000000" stroke-width="1" width="226" x="126" y="494"/>
<text font-family="Lucida Grande" font-size="13" x="136" y="508">
+ MaxStepsWithoutImprovement</text>
<rect fill="#000000" height="1" stroke="#000000" stroke-width="1" width="226" x="126" y="518"/>
<rect fill="#000000" height="1" stroke="#000000" stroke-width="1" width="226" x="126" y="539"/>
<rect fill="#ffffff" height="71" stroke="#ffffff" stroke-width="1" width="113" x="166" y="580"/>
<rect fill="none" height="71" stroke="#000000" stroke-width="1" width="113" x="166" y="580"/>
<text font-family="Lucida Grande" font-size="13" x="185" y="594">
+ MaxSteps</text>
<rect fill="#000000" height="1" stroke="#000000" stroke-width="1" width="113" x="166" y="604"/>
<rect fill="#000000" height="1" stroke="#000000" stroke-width="1" width="113" x="166" y="627"/>
<rect fill="#ffffff" height="68" stroke="#ffffff" stroke-width="1" width="224" x="62" y="790"/>
<rect fill="none" height="68" stroke="#000000" stroke-width="1" width="224" x="62" y="790"/>
<text font-family="Lucida Grande" font-size="13" x="72" y="804">
+ MaxTimeWithoutImprovement</text>
<rect fill="#000000" height="1" stroke="#000000" stroke-width="1" width="224" x="62" y="814"/>
<rect fill="#000000" height="1" stroke="#000000" stroke-width="1" width="224" x="62" y="835"/>
<polyline fill="none" points="350,1403 434,1403" stroke="#000000" stroke-width="1"/>
<polygon fill="#ffffff" points="434,1403 422,1410 422,1396" stroke="#ffffff" stroke-width="1"/>
<polygon fill="none" points="434,1403 422,1410 422,1396" stroke="#000000" stroke-width="1"/>
<polygon fill="#ffffff" points="830,1486 1052,1486 1062,1496 1062,1555 830,1555 830,1486" stroke="#ffffff" stroke-width="1"/>
<polyline fill="none" points="830,1486 1052,1486 1062,1496 1062,1555 830,1555 830,1486" stroke="#000000" stroke-width="1"/>
<polygon fill="#ffffff" points="1052,1486 1062,1496 1052,1496 1052,1486" stroke="#ffffff" stroke-width="1"/>
<polyline fill="none" points="1052,1486 1062,1496 1052,1496 1052,1486" stroke="#000000" stroke-width="1"/>
<text font-family="Lucida Grande" font-size="13" x="833" y="1502">
acceptMove(...) accepts a move by</text>
<text font-family="Lucida Grande" font-size="13" x="833" y="1518">
applying it to the current solution;</text>
<text font-family="Lucida Grande" font-size="13" x="833" y="1534">
also checks whether a new best</text>
<text font-family="Lucida Grande" font-size="13" x="833" y="1550">
solution has been found</text>
<line fill="#000000" stroke="#000000" stroke-width="1" x1="830" x2="825" y1="1547" y2="1547"/>
<line fill="#000000" stroke="#000000" stroke-width="1" x1="820" x2="815" y1="1547" y2="1547"/>
<line fill="#000000" stroke="#000000" stroke-width="1" x1="810" x2="805" y1="1547" y2="1547"/>
<line fill="#000000" stroke="#000000" stroke-width="1" x1="800" x2="795" y1="1547" y2="1547"/>
<line fill="#000000" stroke="#000000" stroke-width="1" x1="790" x2="785" y1="1547" y2="1547"/>
<polygon fill="#ffffff" points="830,1566 1044,1566 1054,1576 1054,1619 830,1619 830,1566" stroke="#ffffff" stroke-width="1"/>
<polyline fill="none" points="830,1566 1044,1566 1054,1576 1054,1619 830,1619 830,1566" stroke="#000000" stroke-width="1"/>
<polygon fill="#ffffff" points="1044,1566 1054,1576 1044,1576 1044,1566" stroke="#ffffff" stroke-width="1"/>
<polyline fill="none" points="1044,1566 1054,1576 1044,1576 1044,1566" stroke="#000000" stroke-width="1"/>
<text font-family="Lucida Grande" font-size="13" x="833" y="1582">
rejectMove() indicates that a</text>
<text font-family="Lucida Grande" font-size="13" x="833" y="1598">
move was rejected (to keep track</text>
<text font-family="Lucida Grande" font-size="13" x="833" y="1614">
of the number of rejected moves)</text>
<line fill="#000000" stroke="#000000" stroke-width="1" x1="830" x2="825" y1="1574" y2="1574"/>
<line fill="#000000" stroke="#000000" stroke-width="1" x1="820" x2="815" y1="1574" y2="1574"/>
<line fill="#000000" stroke="#000000" stroke-width="1" x1="810" x2="805" y1="1574" y2="1574"/>
<line fill="#000000" stroke="#000000" stroke-width="1" x1="800" x2="795" y1="1574" y2="1574"/>
<line fill="#000000" stroke="#000000" stroke-width="1" x1="790" x2="785" y1="1574" y2="1574"/>
<polygon fill="#ffffff" points="329,769 570,769 580,779 580,824 329,824 329,769" stroke="#ffffff" stroke-width="1"/>
<polyline fill="none" points="329,769 570,769 580,779 580,824 329,824 329,769" stroke="#000000" stroke-width="1"/>
<polygon fill="#ffffff" points="570,769 580,779 570,779 570,769" stroke="#ffffff" stroke-width="1"/>
<polyline fill="none" points="570,769 580,779 570,779 570,769" stroke="#000000" stroke-width="1"/>
<text font-family="Lucida Grande" font-size="13" x="332" y="785">
may cast search to required subtype</text>
<text font-family="Lucida Grande" font-size="13" x="332" y="801">
and throw an error if an incompatible</text>
<text font-family="Lucida Grande" font-size="13" x="332" y="817">
search is received</text>
<rect fill="#ffffff" height="143" stroke="#ffffff" stroke-width="1" width="217" x="366" y="494"/>
<rect fill="none" height="143" stroke="#000000" stroke-width="1" width="217" x="366" y="494"/>
<text font-family="Lucida Grande" font-size="13" x="400" y="508">
+ StopCriterionChecker</text>
<rect fill="#000000" height="1" stroke="#000000" stroke-width="1" width="217" x="366" y="518"/>
<text font-family="Lucida Grande" font-size="13" x="370" y="533">
-stopCriteria : List</text>
<rect fill="#000000" height="1" stroke="#000000" stroke-width="1" width="217" x="366" y="543"/>
<text font-family="Lucida Grande" font-size="13" x="370" y="558">
+add(StopCriterion) : void</text>
<text font-family="Lucida Grande" font-size="13" x="370" y="575">
+startChecking() : void</text>
<text font-family="Lucida Grande" font-size="13" x="370" y="592">
+stopChecking() : void</text>
<text font-family="Lucida Grande" font-size="13" x="370" y="609">
+setPeriod(long,TimeUnit) : void</text>
<text font-family="Lucida Grande" font-size="13" x="370" y="626">
+remove(StopCriterion) : boolean</text>
<rect fill="#ffffff" height="70" stroke="#ffffff" stroke-width="1" width="241" x="246" y="683"/>
<rect fill="none" height="70" stroke="#000000" stroke-width="1" width="241" x="246" y="683"/>
<text font-family="Lucida Grande" font-size="13" x="318" y="717">
+ StopCriterion</text>
<text font-family="Lucida Grande" font-size="13" x="319" y="698">
&lt;&lt;interface&gt;&gt;</text>
<rect fill="#000000" height="1" stroke="#000000" stroke-width="1" width="241" x="246" y="727"/>
<text font-family="Lucida Grande" font-size="13" font-style="italic" x="250" y="742">
+searchShouldStop(Search) : boolean</text>
<line fill="#000000" stroke="#000000" stroke-width="1" x1="254" x2="254" y1="650" y2="655"/>
<line fill="#000000" stroke="#000000" stroke-width="1" x1="254" x2="254" y1="660" y2="665"/>
<line fill="#000000" stroke="#000000" stroke-width="1" x1="254" x2="254" y1="670" y2="675"/>
<line fill="#000000" stroke="#000000" stroke-width="1" x1="254" x2="254" y1="680" y2="683"/>
<polygon fill="#ffffff" points="254,683 247,671 261,671" stroke="#ffffff" stroke-width="1"/>
<polygon fill="none" points="254,683 247,671 261,671" stroke="#000000" stroke-width="1"/>
<line fill="#000000" stroke="#000000" stroke-width="1" x1="294" x2="294" y1="561" y2="566"/>
<line fill="#000000" stroke="#000000" stroke-width="1" x1="294" x2="294" y1="571" y2="576"/>
<line fill="#000000" stroke="#000000" stroke-width="1" x1="294" x2="294" y1="581" y2="586"/>
<line fill="#000000" stroke="#000000" stroke-width="1" x1="294" x2="294" y1="591" y2="596"/>
<line fill="#000000" stroke="#000000" stroke-width="1" x1="294" x2="294" y1="601" y2="606"/>
<line fill="#000000" stroke="#000000" stroke-width="1" x1="294" x2="294" y1="611" y2="616"/>
<line fill="#000000" stroke="#000000" stroke-width="1" x1="294" x2="294" y1="621" y2="626"/>
<line fill="#000000" stroke="#000000" stroke-width="1" x1="294" x2="294" y1="631" y2="636"/>
<line fill="#000000" stroke="#000000" stroke-width="1" x1="294" x2="294" y1="641" y2="646"/>
<line fill="#000000" stroke="#000000" stroke-width="1" x1="294" x2="294" y1="651" y2="656"/>
<line fill="#000000" stroke="#000000" stroke-width="1" x1="294" x2="294" y1="661" y2="666"/>
<line fill="#000000" stroke="#000000" stroke-width="1" x1="294" x2="294" y1="671" y2="676"/>
<line fill="#000000" stroke="#000000" stroke-width="1" x1="294" x2="294" y1="681" y2="683"/>
<polygon fill="#ffffff" points="294,683 287,671 301,671" stroke="#ffffff" stroke-width="1"/>
<polygon fill="none" points="294,683 287,671 301,671" stroke="#000000" stroke-width="1"/>
<line fill="#000000" stroke="#000000" stroke-width="1" x1="178" x2="183" y1="735" y2="735"/>
<line fill="#000000" stroke="#000000" stroke-width="1" x1="188" x2="193" y1="735" y2="735"/>
<line fill="#000000" stroke="#000000" stroke-width="1" x1="198" x2="203" y1="735" y2="735"/>
<line fill="#000000" stroke="#000000" stroke-width="1" x1="208" x2="213" y1="735" y2="735"/>
<line fill="#000000" stroke="#000000" stroke-width="1" x1="218" x2="223" y1="735" y2="735"/>
<line fill="#000000" stroke="#000000" stroke-width="1" x1="228" x2="233" y1="735" y2="735"/>
<line fill="#000000" stroke="#000000" stroke-width="1" x1="238" x2="243" y1="735" y2="735"/>
<polygon fill="#ffffff" points="246,735 234,742 234,728" stroke="#ffffff" stroke-width="1"/>
<polygon fill="none" points="246,735 234,742 234,728" stroke="#000000" stroke-width="1"/>
<line fill="#000000" stroke="#000000" stroke-width="1" x1="261" x2="261" y1="790" y2="785"/>
<line fill="#000000" stroke="#000000" stroke-width="1" x1="261" x2="261" y1="780" y2="775"/>
<line fill="#000000" stroke="#000000" stroke-width="1" x1="261" x2="261" y1="770" y2="765"/>
<line fill="#000000" stroke="#000000" stroke-width="1" x1="261" x2="261" y1="760" y2="755"/>
<polygon fill="#ffffff" points="261,752 268,764 254,764" stroke="#ffffff" stroke-width="1"/>
<polygon fill="none" points="261,752 268,764 254,764" stroke="#000000" stroke-width="1"/>
<line fill="#000000" stroke="#000000" stroke-width="1" x1="310" x2="310" y1="846" y2="841"/>
<line fill="#000000" stroke="#000000" stroke-width="1" x1="310" x2="310" y1="836" y2="831"/>
<line fill="#000000" stroke="#000000" stroke-width="1" x1="310" x2="310" y1="826" y2="821"/>
<line fill="#000000" stroke="#000000" stroke-width="1" x1="310" x2="310" y1="816" y2="811"/>
<line fill="#000000" stroke="#000000" stroke-width="1" x1="310" x2="310" y1="806" y2="801"/>
<line fill="#000000" stroke="#000000" stroke-width="1" x1="310" x2="310" y1="796" y2="791"/>
<line fill="#000000" stroke="#000000" stroke-width="1" x1="310" x2="310" y1="786" y2="781"/>
<line fill="#000000" stroke="#000000" stroke-width="1" x1="310" x2="310" y1="776" y2="771"/>
<line fill="#000000" stroke="#000000" stroke-width="1" x1="310" x2="310" y1="766" y2="761"/>
<line fill="#000000" stroke="#000000" stroke-width="1" x1="310" x2="310" y1="756" y2="752"/>
<polygon fill="#ffffff" points="310,752 317,764 303,764" stroke="#ffffff" stroke-width="1"/>
<polygon fill="none" points="310,752 317,764 303,764" stroke="#000000" stroke-width="1"/>
<line fill="#000000" stroke="#000000" stroke-width="1" x1="390" x2="390" y1="752" y2="757"/>
<line fill="#000000" stroke="#000000" stroke-width="1" x1="390" x2="390" y1="762" y2="767"/>
<polyline fill="none" points="430,636 430,683" stroke="#000000" stroke-width="1"/>
<line fill="#000000" stroke="#000000" stroke-width="1" x1="423" x2="430" y1="671" y2="683"/>
<line fill="#000000" stroke="#000000" stroke-width="1" x1="437" x2="430" y1="671" y2="683"/>
<text font-family="Lucida Grande" font-size="13" x="446" y="664">
 </text>
<polyline fill="none" points="654,507 582,507" stroke="#000000" stroke-width="1"/>
<line fill="#000000" stroke="#000000" stroke-width="1" x1="594" x2="582" y1="500" y2="507"/>
<line fill="#000000" stroke="#000000" stroke-width="1" x1="594" x2="582" y1="514" y2="507"/>
<text font-family="Lucida Grande" font-size="13" x="587" y="487">
 </text>
<polyline fill="none" points="654,707 486,707" stroke="#000000" stroke-width="1"/>
<line fill="#000000" stroke="#000000" stroke-width="1" x1="498" x2="486" y1="700" y2="707"/>
<line fill="#000000" stroke="#000000" stroke-width="1" x1="498" x2="486" y1="714" y2="707"/>
<text font-family="Lucida Grande" font-size="13" x="539" y="687">
 </text>
<rect fill="#ffffff" height="245" stroke="#ffffff" stroke-width="1" width="476" x="603" y="1066"/>
<rect fill="none" height="245" stroke="#000000" stroke-width="1" width="476" x="603" y="1066"/>
<text font-family="Lucida Grande" font-size="13" font-style="italic" x="797" y="1080">
+ LocalSearch</text>
<rect fill="#000000" height="1" stroke="#000000" stroke-width="1" width="476" x="603" y="1090"/>
<text font-family="Lucida Grande" font-size="13" x="607" y="1105">
-curSolution : SolutionType</text>
<text font-family="Lucida Grande" font-size="13" x="607" y="1122">
-curSolutionEvaluation : Evaluation</text>
<text font-family="Lucida Grande" font-size="13" x="607" y="1139">
-curSolutionValidation : Validation</text>
<text font-family="Lucida Grande" font-size="13" x="607" y="1156">
-localSearchListeners : List</text>
<rect fill="#000000" height="1" stroke="#000000" stroke-width="1" width="476" x="603" y="1166"/>
<text font-family="Lucida Grande" font-size="13" x="607" y="1181">
+getCurrentSolution() : SolutionType</text>
<text font-family="Lucida Grande" font-size="13" x="607" y="1198">
+getCurrentSolutionEvaluation() : Evaluation</text>
<text font-family="Lucida Grande" font-size="13" x="607" y="1215">
+getCurrentSolutionValidation() : Validation</text>
<text font-family="Lucida Grande" font-size="13" x="607" y="1232">
+setCurrentSolution(SolutionType) : void</text>
<text font-family="Lucida Grande" font-size="13" x="607" y="1249">
#updateCurrentSolution(SolutionType) : void</text>
<text font-family="Lucida Grande" font-size="13" x="607" y="1266">
#updateCurrentSolution(SolutionType,Evaluation,Validation) : void</text>
<text font-family="Lucida Grande" font-size="13" x="607" y="1283">
#updateCurrentAndBestSolution(SolutionType) : void</text>
<text font-family="Lucida Grande" font-size="13" x="607" y="1300">
#updateCurrentAndBestSolution(SolutionType,Evaluation,Validation) : void</text>
<polyline fill="none" points="841,1066 841,1021" stroke="#000000" stroke-width="1"/>
<polygon fill="#ffffff" points="841,1021 848,1033 834,1033" stroke="#ffffff" stroke-width="1"/>
<polygon fill="none" points="841,1021 848,1033 834,1033" stroke="#000000" stroke-width="1"/>
<polyline fill="none" points="709,1358 709,1310" stroke="#000000" stroke-width="1"/>
<polygon fill="#ffffff" points="709,1310 716,1322 702,1322" stroke="#ffffff" stroke-width="1"/>
<polygon fill="none" points="709,1310 716,1322 702,1322" stroke="#000000" stroke-width="1"/>
<polygon fill="#ffffff" points="718,62 836,62 836,86 885,86 885,277 718,277 718,62" stroke="#ffffff" stroke-width="1"/>
<rect fill="none" height="24" stroke="#000000" stroke-width="1" width="118" x="718" y="62"/>
<text font-family="Lucida Grande" font-size="13" x="723" y="76">
status</text>
<rect fill="none" height="191" stroke="#000000" stroke-width="1" width="167" x="718" y="86"/>
<rect fill="#ffffff" height="159" stroke="#ffffff" stroke-width="1" width="129" x="737" y="102"/>
<rect fill="none" height="159" stroke="#000000" stroke-width="1" width="129" x="737" y="102"/>
<text font-family="Lucida Grande" font-size="13" x="761" y="136">
SearchStatus</text>
<text font-family="Lucida Grande" font-size="13" x="742" y="117">
&lt;&lt;enumeration&gt;&gt;</text>
<rect fill="#000000" height="1" stroke="#000000" stroke-width="1" width="129" x="737" y="146"/>
<text font-family="Lucida Grande" font-size="13" x="741" y="161">
IDLE</text>
<text font-family="Lucida Grande" font-size="13" x="741" y="178">
INITIALIZING</text>
<text font-family="Lucida Grande" font-size="13" x="741" y="195">
RUNNING</text>
<text font-family="Lucida Grande" font-size="13" x="741" y="212">
TERMINATING</text>
<text font-family="Lucida Grande" font-size="13" x="741" y="229">
DISPOSED</text>
<rect fill="#000000" height="1" stroke="#000000" stroke-width="1" width="129" x="737" y="239"/>
<polyline fill="none" points="801,318 801,260" stroke="#000000" stroke-width="1"/>
<line fill="#000000" stroke="#000000" stroke-width="1" x1="808" x2="801" y1="272" y2="260"/>
<line fill="#000000" stroke="#000000" stroke-width="1" x1="794" x2="801" y1="272" y2="260"/>
<text font-family="Lucida Grande" font-size="13" x="723" y="294">
 </text>
<polygon fill="#ffffff" points="38,94 540,94 540,118 589,118 589,397 38,397 38,94" stroke="#ffffff" stroke-width="1"/>
<rect fill="none" height="24" stroke="#000000" stroke-width="1" width="502" x="38" y="94"/>
<text font-family="Lucida Grande" font-size="13" x="43" y="108">
listeners</text>
<rect fill="none" height="279" stroke="#000000" stroke-width="1" width="551" x="38" y="118"/>
<rect fill="#ffffff" height="70" stroke="#ffffff" stroke-width="1" width="516" x="55" y="136"/>
<rect fill="none" height="70" stroke="#000000" stroke-width="1" width="516" x="55" y="136"/>
<text font-family="Lucida Grande" font-size="13" x="244" y="170">
+ LocalSearchListener</text>
<text font-family="Lucida Grande" font-size="13" x="265" y="151">
&lt;&lt;interface&gt;&gt;</text>
<rect fill="#000000" height="1" stroke="#000000" stroke-width="1" width="516" x="55" y="180"/>
<text font-family="Lucida Grande" font-size="13" font-style="italic" x="59" y="195">
+modifiedCurrentSolution(LocalSearch,SolutionType,Evaluation,Validation) : void</text>
<rect fill="#ffffff" height="138" stroke="#ffffff" stroke-width="1" width="431" x="95" y="240"/>
<rect fill="none" height="138" stroke="#000000" stroke-width="1" width="431" x="95" y="240"/>
<text font-family="Lucida Grande" font-size="13" x="258" y="274">
+ SearchListener</text>
<text font-family="Lucida Grande" font-size="13" x="263" y="255">
&lt;&lt;interface&gt;&gt;</text>
<rect fill="#000000" height="1" stroke="#000000" stroke-width="1" width="431" x="95" y="284"/>
<text font-family="Lucida Grande" font-size="13" font-style="italic" x="99" y="299">
+searchStarted(Search) : void</text>
<text font-family="Lucida Grande" font-size="13" font-style="italic" x="99" y="316">
+searchStopped(Search) : void</text>
<text font-family="Lucida Grande" font-size="13" font-style="italic" x="99" y="333">
+newBestSolution(Search,SolutionType,Evaluation,Validation) : void</text>
<text font-family="Lucida Grande" font-size="13" font-style="italic" x="99" y="350">
+stepCompleted(Search,long) : void</text>
<text font-family="Lucida Grande" font-size="13" font-style="italic" x="99" y="367">
+statusChanged(Search,SearchStatus) : void</text>
<polyline fill="none" points="654,331 525,331" stroke="#000000" stroke-width="1"/>
<line fill="#000000" stroke="#000000" stroke-width="1" x1="537" x2="525" y1="324" y2="331"/>
<line fill="#000000" stroke="#000000" stroke-width="1" x1="537" x2="525" y1="338" y2="331"/>
<text font-family="Lucida Grande" font-size="13" x="559" y="311">
 </text>
<polyline fill="none" points="311,205 311,240" stroke="#000000" stroke-width="1"/>
<polygon fill="#ffffff" points="311,240 304,228 318,228" stroke="#ffffff" stroke-width="1"/>
<polygon fill="none" points="311,240 304,228 318,228" stroke="#000000" stroke-width="1"/>
</svg>
