<?xml version="1.0" encoding="utf-8" ?>
<!DOCTYPE svg PUBLIC "-//W3C//DTD SVG 1.1//EN" "http://www.w3.org/Graphics/SVG/1.1/DTD/svg11.dtd">
<svg height="1012" version="1.1" width="708" xmlns="http://www.w3.org/2000/svg">
<polygon fill="#ffffff" points="14,14 644,14 644,38 693,38 693,997 14,997 14,14" stroke="#ffffff" stroke-width="1"/>
<rect fill="none" height="24" stroke="#000000" stroke-width="1" width="630" x="14" y="14"/>
<text font-family="Lucida Grande" font-size="13" x="19" y="28">
search</text>
<rect fill="none" height="959" stroke="#000000" stroke-width="1" width="679" x="14" y="38"/>
<rect fill="#ffffff" height="92" stroke="#ffffff" stroke-width="1" width="271" x="30" y="781"/>
<rect fill="none" height="92" stroke="#000000" stroke-width="1" width="271" x="30" y="781"/>
<text font-family="Lucida Grande" font-size="13" font-style="italic" x="77" y="795">
SingleNeighbourhoodSearch</text>
<rect fill="#000000" height="1" stroke="#000000" stroke-width="1" width="271" x="30" y="805"/>
<rect fill="#000000" height="1" stroke="#000000" stroke-width="1" width="271" x="30" y="828"/>
<text font-family="Lucida Grande" font-size="13" x="34" y="843">
setNeighbourhood(Neighbourhood) : void</text>
<text font-family="Lucida Grande" font-size="13" x="34" y="860">
getNeighbourhood() : Neighbourhood</text>
<rect fill="#ffffff" height="92" stroke="#ffffff" stroke-width="1" width="253" x="70" y="884"/>
<rect fill="none" height="92" stroke="#000000" stroke-width="1" width="253" x="70" y="884"/>
<text font-family="Lucida Grande" font-size="13" font-style="italic" x="111" y="898">
MultiNeighbourhoodSearch</text>
<rect fill="#000000" height="1" stroke="#000000" stroke-width="1" width="253" x="70" y="908"/>
<rect fill="#000000" height="1" stroke="#000000" stroke-width="1" width="253" x="70" y="931"/>
<text font-family="Lucida Grande" font-size="13" x="74" y="946">
setNeighbourhoods(List) : void</text>
<text font-family="Lucida Grande" font-size="13" x="74" y="963">
getNeighbourhoods() : List</text>
<rect fill="#ffffff" height="155" stroke="#ffffff" stroke-width="1" width="475" x="196" y="64"/>
<rect fill="none" height="155" stroke="#000000" stroke-width="1" width="475" x="196" y="64"/>
<text font-family="Lucida Grande" font-size="13" x="388" y="98">
SearchListener</text>
<text font-family="Lucida Grande" font-size="13" x="386" y="79">
&lt;&lt;interface&gt;&gt;</text>
<rect fill="#000000" height="1" stroke="#000000" stroke-width="1" width="475" x="196" y="108"/>
<text font-family="Lucida Grande" font-size="13" font-style="italic" x="200" y="123">
searchStarted(Search) : void</text>
<text font-family="Lucida Grande" font-size="13" font-style="italic" x="200" y="140">
searchStopped(Search) : void</text>
<text font-family="Lucida Grande" font-size="13" font-style="italic" x="200" y="157">
newBestSolution(Search,SolutionType,Evaluation,Validation) : void</text>
<text font-family="Lucida Grande" font-size="13" font-style="italic" x="200" y="174">
newCurrentSolution(LocalSearch,SolutionType,Evaluation,Validation) : void</text>
<text font-family="Lucida Grande" font-size="13" font-style="italic" x="200" y="191">
stepCompleted(Search,long) : void</text>
<text font-family="Lucida Grande" font-size="13" font-style="italic" x="200" y="208">
statusChanged(Search,SearchStatus) : void</text>
<rect fill="#ffffff" height="70" stroke="#ffffff" stroke-width="1" width="233" x="61" y="302"/>
<rect fill="none" height="70" stroke="#000000" stroke-width="1" width="233" x="61" y="302"/>
<text font-family="Lucida Grande" font-size="13" x="136" y="336">
StopCriterion</text>
<text font-family="Lucida Grande" font-size="13" x="130" y="317">
&lt;&lt;interface&gt;&gt;</text>
<rect fill="#000000" height="1" stroke="#000000" stroke-width="1" width="233" x="61" y="346"/>
<text font-family="Lucida Grande" font-size="13" font-style="italic" x="65" y="361">
searchShouldStop(Search) : boolean</text>
<rect fill="#ffffff" height="394" stroke="#ffffff" stroke-width="1" width="327" x="344" y="258"/>
<rect fill="none" height="394" stroke="#000000" stroke-width="1" width="327" x="344" y="258"/>
<text font-family="Lucida Grande" font-size="13" font-style="italic" x="487" y="272">
Search</text>
<rect fill="#000000" height="1" stroke="#000000" stroke-width="1" width="327" x="344" y="282"/>
<rect fill="#000000" height="1" stroke="#000000" stroke-width="1" width="327" x="344" y="303"/>
<text font-family="Lucida Grande" font-size="13" x="348" y="318">
setStopCriterionCheckPeriod(long,TimeUnit) : void</text>
<text font-family="Lucida Grande" font-size="13" x="348" y="335">
addStopCriterion(StopCriterion) : void</text>
<text font-family="Lucida Grande" font-size="13" x="348" y="352">
removeStopCriterion(StopCriterion) : boolean</text>
<text font-family="Lucida Grande" font-size="13" x="348" y="369">
addSearchListener(SearchListener) : boolean</text>
<text font-family="Lucida Grande" font-size="13" x="348" y="386">
removeSearchListener(SearchListener) : boolean</text>
<text font-family="Lucida Grande" font-size="13" x="348" y="403">
getStatus() : SearchStatus</text>
<text font-family="Lucida Grande" font-size="13" x="348" y="420">
getRuntime() : long</text>
<text font-family="Lucida Grande" font-size="13" x="348" y="437">
getSteps() : long</text>
<text font-family="Lucida Grande" font-size="13" x="348" y="454">
getTimeWithoutImprovement() : long</text>
<text font-family="Lucida Grande" font-size="13" x="348" y="471">
getStepsWithoutImprovement() : long</text>
<text font-family="Lucida Grande" font-size="13" x="348" y="488">
getMinDelta() : double</text>
<text font-family="Lucida Grande" font-size="13" x="348" y="505">
start() : void</text>
<text font-family="Lucida Grande" font-size="13" x="348" y="522">
stop() : void</text>
<text font-family="Lucida Grande" font-size="13" x="348" y="539">
getBestSolution() : SolutionType</text>
<text font-family="Lucida Grande" font-size="13" x="348" y="556">
getBestSolutionEvaluation() : Evaluation</text>
<text font-family="Lucida Grande" font-size="13" x="348" y="573">
getBestSolutionValidation() : Validation</text>
<text font-family="Lucida Grande" font-size="13" x="348" y="590">
getName() : String</text>
<text font-family="Lucida Grande" font-size="13" x="348" y="607">
getID() : int</text>
<text font-family="Lucida Grande" font-size="13" x="348" y="624">
dispose() : void</text>
<text font-family="Lucida Grande" font-size="13" x="348" y="641">
getProblem() : Problem</text>
<polyline fill="none" points="344,325 293,325" stroke="#000000" stroke-width="1"/>
<line fill="#000000" stroke="#000000" stroke-width="1" x1="305" x2="293" y1="318" y2="325"/>
<line fill="#000000" stroke="#000000" stroke-width="1" x1="305" x2="293" y1="332" y2="325"/>
<polyline fill="none" points="499,258 499,218" stroke="#000000" stroke-width="1"/>
<line fill="#000000" stroke="#000000" stroke-width="1" x1="506" x2="499" y1="230" y2="218"/>
<line fill="#000000" stroke="#000000" stroke-width="1" x1="492" x2="499" y1="230" y2="218"/>
<rect fill="#ffffff" height="88" stroke="#ffffff" stroke-width="1" width="232" x="390" y="861"/>
<rect fill="none" height="88" stroke="#000000" stroke-width="1" width="232" x="390" y="861"/>
<text font-family="Lucida Grande" font-size="13" font-style="italic" x="436" y="875">
NeighbourhoodSearch</text>
<rect fill="#000000" height="1" stroke="#000000" stroke-width="1" width="232" x="390" y="885"/>
<rect fill="#000000" height="1" stroke="#000000" stroke-width="1" width="232" x="390" y="906"/>
<text font-family="Lucida Grande" font-size="13" x="394" y="921">
getNumAcceptedMoves() : long</text>
<text font-family="Lucida Grande" font-size="13" x="394" y="938">
getNumRejectedMoves() : long</text>
<rect fill="#ffffff" height="159" stroke="#ffffff" stroke-width="1" width="129" x="165" y="414"/>
<rect fill="none" height="159" stroke="#000000" stroke-width="1" width="129" x="165" y="414"/>
<text font-family="Lucida Grande" font-size="13" x="189" y="448">
SearchStatus</text>
<text font-family="Lucida Grande" font-size="13" x="170" y="429">
&lt;&lt;enumeration&gt;&gt;</text>
<rect fill="#000000" height="1" stroke="#000000" stroke-width="1" width="129" x="165" y="458"/>
<text font-family="Lucida Grande" font-size="13" x="169" y="473">
IDLE</text>
<text font-family="Lucida Grande" font-size="13" x="169" y="490">
INITIALIZING</text>
<text font-family="Lucida Grande" font-size="13" x="169" y="507">
RUNNING</text>
<text font-family="Lucida Grande" font-size="13" x="169" y="524">
TERMINATING</text>
<text font-family="Lucida Grande" font-size="13" x="169" y="541">
DISPOSED</text>
<rect fill="#000000" height="1" stroke="#000000" stroke-width="1" width="129" x="165" y="551"/>
<polyline fill="none" points="344,438 293,438" stroke="#000000" stroke-width="1"/>
<line fill="#000000" stroke="#000000" stroke-width="1" x1="305" x2="293" y1="431" y2="438"/>
<line fill="#000000" stroke="#000000" stroke-width="1" x1="305" x2="293" y1="445" y2="438"/>
<polyline fill="none" points="300,861 390,861" stroke="#000000" stroke-width="1"/>
<polygon fill="#ffffff" points="390,861 378,868 378,854" stroke="#ffffff" stroke-width="1"/>
<polygon fill="none" points="390,861 378,868 378,854" stroke="#000000" stroke-width="1"/>
<polyline fill="none" points="322,896 390,896" stroke="#000000" stroke-width="1"/>
<polygon fill="#ffffff" points="390,896 378,903 378,889" stroke="#ffffff" stroke-width="1"/>
<polygon fill="none" points="390,896 378,903 378,889" stroke="#000000" stroke-width="1"/>
<rect fill="#ffffff" height="122" stroke="#ffffff" stroke-width="1" width="278" x="367" y="693"/>
<rect fill="none" height="122" stroke="#000000" stroke-width="1" width="278" x="367" y="693"/>
<text font-family="Lucida Grande" font-size="13" font-style="italic" x="469" y="707">
LocalSearch</text>
<rect fill="#000000" height="1" stroke="#000000" stroke-width="1" width="278" x="367" y="717"/>
<rect fill="#000000" height="1" stroke="#000000" stroke-width="1" width="278" x="367" y="738"/>
<text font-family="Lucida Grande" font-size="13" x="371" y="753">
getCurrentSolution() : SolutionType</text>
<text font-family="Lucida Grande" font-size="13" x="371" y="770">
getCurrentSolutionEvaluation() : Evaluation</text>
<text font-family="Lucida Grande" font-size="13" x="371" y="787">
getCurrentSolutionValidation() : Validation</text>
<text font-family="Lucida Grande" font-size="13" x="371" y="804">
setCurrentSolution(SolutionType) : void</text>
<polyline fill="none" points="502,693 502,651" stroke="#000000" stroke-width="1"/>
<polygon fill="#ffffff" points="502,651 509,663 495,663" stroke="#ffffff" stroke-width="1"/>
<polygon fill="none" points="502,651 509,663 495,663" stroke="#000000" stroke-width="1"/>
<polyline fill="none" points="502,861 502,814" stroke="#000000" stroke-width="1"/>
<polygon fill="#ffffff" points="502,814 509,826 495,826" stroke="#ffffff" stroke-width="1"/>
<polygon fill="none" points="502,814 509,826 495,826" stroke="#000000" stroke-width="1"/>
</svg>
