<?xml version="1.0" encoding="utf-8" ?>
<!DOCTYPE svg PUBLIC "-//W3C//DTD SVG 1.1//EN" "http://www.w3.org/Graphics/SVG/1.1/DTD/svg11.dtd">
<svg height="820" version="1.1" width="828" xmlns="http://www.w3.org/2000/svg">
<polygon fill="#ffffff" points="14,14 764,14 764,38 813,38 813,805 14,805 14,14" stroke="#ffffff" stroke-width="1"/>
<rect fill="none" height="24" stroke="#000000" stroke-width="1" width="750" x="14" y="14"/>
<text font-family="Lucida Grande" font-size="13" x="19" y="28">
problems</text>
<rect fill="none" height="767" stroke="#000000" stroke-width="1" width="799" x="14" y="38"/>
<rect fill="#ffffff" height="122" stroke="#ffffff" stroke-width="1" width="252" x="215" y="662"/>
<rect fill="none" height="122" stroke="#000000" stroke-width="1" width="252" x="215" y="662"/>
<text font-family="Lucida Grande" font-size="13" x="315" y="696">
Problem</text>
<text font-family="Lucida Grande" font-size="13" x="293" y="677">
&lt;&lt;interface&gt;&gt;</text>
<rect fill="#000000" height="1" stroke="#000000" stroke-width="1" width="252" x="215" y="706"/>
<text font-family="Lucida Grande" font-size="13" font-style="italic" x="219" y="721">
evaluate(SolutionType) : double</text>
<text font-family="Lucida Grande" font-size="13" font-style="italic" x="219" y="738">
createRandomSolution() : SolutionType</text>
<text font-family="Lucida Grande" font-size="13" font-style="italic" x="219" y="755">
isMinimizing() : boolean</text>
<text font-family="Lucida Grande" font-size="13" font-style="italic" x="219" y="772">
rejectSolution(SolutionType) : boolean</text>
<rect fill="#ffffff" height="262" stroke="#ffffff" stroke-width="1" width="386" x="148" y="350"/>
<rect fill="none" height="262" stroke="#000000" stroke-width="1" width="386" x="148" y="350"/>
<text font-family="Lucida Grande" font-size="13" font-style="italic" x="289" y="364">
AbstractProblem</text>
<rect fill="#000000" height="1" stroke="#000000" stroke-width="1" width="386" x="148" y="374"/>
<text font-family="Lucida Grande" font-size="13" x="152" y="389">
objective : Objective</text>
<text font-family="Lucida Grande" font-size="13" x="152" y="406">
rejectingConstraints : Collection</text>
<text font-family="Lucida Grande" font-size="13" x="152" y="423">
penalizingConstraints : Collection</text>
<text font-family="Lucida Grande" font-size="13" x="152" y="440">
data : DataType</text>
<rect fill="#000000" height="1" stroke="#000000" stroke-width="1" width="386" x="148" y="450"/>
<text font-family="Lucida Grande" font-size="13" x="152" y="465">
addRejectingConstraint(Constraint) : void</text>
<text font-family="Lucida Grande" font-size="13" x="152" y="482">
removeRejectingConstraint(Constraint) : boolean</text>
<text font-family="Lucida Grande" font-size="13" x="152" y="499">
addPenalizingConstraint(PenalizingConstraint) : void</text>
<text font-family="Lucida Grande" font-size="13" x="152" y="516">
removePenalizingConstraint(PenalizingConstraint) : boolean</text>
<text font-family="Lucida Grande" font-size="13" x="152" y="533">
setObjective(Objective) : void</text>
<text font-family="Lucida Grande" font-size="13" x="152" y="550">
getObjective() : Objective</text>
<text font-family="Lucida Grande" font-size="13" x="152" y="567">
setData(DataType) : void</text>
<text font-family="Lucida Grande" font-size="13" x="152" y="584">
getData() : DataType</text>
<text font-family="Lucida Grande" font-size="13" x="152" y="601">
getViolatedConstraints(SolutionType) : Set</text>
<line fill="#000000" stroke="#000000" stroke-width="1" x1="345" x2="345" y1="611" y2="616"/>
<line fill="#000000" stroke="#000000" stroke-width="1" x1="345" x2="345" y1="621" y2="626"/>
<line fill="#000000" stroke="#000000" stroke-width="1" x1="345" x2="345" y1="631" y2="636"/>
<line fill="#000000" stroke="#000000" stroke-width="1" x1="345" x2="345" y1="641" y2="646"/>
<line fill="#000000" stroke="#000000" stroke-width="1" x1="345" x2="345" y1="651" y2="656"/>
<line fill="#000000" stroke="#000000" stroke-width="1" x1="345" x2="345" y1="661" y2="662"/>
<polygon fill="#ffffff" points="345,662 338,650 352,650" stroke="#ffffff" stroke-width="1"/>
<polygon fill="none" points="345,662 338,650 352,650" stroke="#000000" stroke-width="1"/>
<polygon fill="#ffffff" points="464,118 742,118 742,142 791,142 791,277 464,277 464,118" stroke="#ffffff" stroke-width="1"/>
<rect fill="none" height="24" stroke="#000000" stroke-width="1" width="278" x="464" y="118"/>
<text font-family="Lucida Grande" font-size="13" x="469" y="132">
objectives</text>
<rect fill="none" height="135" stroke="#000000" stroke-width="1" width="327" x="464" y="142"/>
<rect fill="#ffffff" height="87" stroke="#ffffff" stroke-width="1" width="270" x="492" y="166"/>
<rect fill="none" height="87" stroke="#000000" stroke-width="1" width="270" x="492" y="166"/>
<text font-family="Lucida Grande" font-size="13" x="597" y="200">
Objective</text>
<text font-family="Lucida Grande" font-size="13" x="579" y="181">
&lt;&lt;interface&gt;&gt;</text>
<rect fill="#000000" height="1" stroke="#000000" stroke-width="1" width="270" x="492" y="210"/>
<text font-family="Lucida Grande" font-size="13" font-style="italic" x="496" y="225">
evaluate(SolutionType,DataType) : double</text>
<text font-family="Lucida Grande" font-size="13" font-style="italic" x="496" y="242">
isMinimizing() : boolean</text>
<polyline fill="none" points="518,350 518,252" stroke="#000000" stroke-width="1"/>
<line fill="#000000" stroke="#000000" stroke-width="1" x1="525" x2="518" y1="264" y2="252"/>
<line fill="#000000" stroke="#000000" stroke-width="1" x1="511" x2="518" y1="264" y2="252"/>
<polygon fill="#ffffff" points="38,62 396,62 396,86 445,86 445,309 38,309 38,62" stroke="#ffffff" stroke-width="1"/>
<rect fill="none" height="24" stroke="#000000" stroke-width="1" width="358" x="38" y="62"/>
<text font-family="Lucida Grande" font-size="13" x="43" y="76">
constraints</text>
<rect fill="none" height="223" stroke="#000000" stroke-width="1" width="407" x="38" y="86"/>
<rect fill="#ffffff" height="70" stroke="#ffffff" stroke-width="1" width="288" x="134" y="110"/>
<rect fill="none" height="70" stroke="#000000" stroke-width="1" width="288" x="134" y="110"/>
<text font-family="Lucida Grande" font-size="13" x="245" y="144">
Constraint</text>
<text font-family="Lucida Grande" font-size="13" x="230" y="125">
&lt;&lt;interface&gt;&gt;</text>
<rect fill="#000000" height="1" stroke="#000000" stroke-width="1" width="288" x="134" y="154"/>
<text font-family="Lucida Grande" font-size="13" font-style="italic" x="138" y="169">
isSatisfied(SolutionType,DataType) : boolean</text>
<rect fill="#ffffff" height="70" stroke="#ffffff" stroke-width="1" width="317" x="62" y="214"/>
<rect fill="none" height="70" stroke="#000000" stroke-width="1" width="317" x="62" y="214"/>
<text font-family="Lucida Grande" font-size="13" x="155" y="248">
PenalizingConstraint</text>
<text font-family="Lucida Grande" font-size="13" x="173" y="229">
&lt;&lt;interface&gt;&gt;</text>
<rect fill="#000000" height="1" stroke="#000000" stroke-width="1" width="317" x="62" y="258"/>
<text font-family="Lucida Grande" font-size="13" font-style="italic" x="66" y="273">
computePenalty(SolutionType,DataType) : double</text>
<polyline fill="none" points="262,214 262,179" stroke="#000000" stroke-width="1"/>
<polygon fill="#ffffff" points="262,179 269,191 255,191" stroke="#ffffff" stroke-width="1"/>
<polygon fill="none" points="262,179 269,191 255,191" stroke="#000000" stroke-width="1"/>
<polyline fill="none" points="398,350 398,179" stroke="#000000" stroke-width="1"/>
<line fill="#000000" stroke="#000000" stroke-width="1" x1="405" x2="398" y1="191" y2="179"/>
<line fill="#000000" stroke="#000000" stroke-width="1" x1="391" x2="398" y1="191" y2="179"/>
<polyline fill="none" points="262,350 262,283" stroke="#000000" stroke-width="1"/>
<line fill="#000000" stroke="#000000" stroke-width="1" x1="269" x2="262" y1="295" y2="283"/>
<line fill="#000000" stroke="#000000" stroke-width="1" x1="255" x2="262" y1="295" y2="283"/>
<rect fill="#ffffff" height="122" stroke="#ffffff" stroke-width="1" width="226" x="518" y="662"/>
<rect fill="none" height="122" stroke="#000000" stroke-width="1" width="226" x="518" y="662"/>
<text font-family="Lucida Grande" font-size="13" font-style="italic" x="605" y="676">
Solution</text>
<rect fill="#000000" height="1" stroke="#000000" stroke-width="1" width="226" x="518" y="686"/>
<rect fill="#000000" height="1" stroke="#000000" stroke-width="1" width="226" x="518" y="707"/>
<text font-family="Lucida Grande" font-size="13" font-style="italic" x="522" y="722">
isSameSolution(Solution) : boolean</text>
<text font-family="Lucida Grande" font-size="13" font-style="italic" x="522" y="739">
computeHashCode() : int</text>
<text font-family="Lucida Grande" font-size="13" font-style="italic" x="522" y="756">
copy() : Solution</text>
<line fill="#000000" stroke="#000000" stroke-width="1" x1="522" x2="642" y1="774" y2="774"/>
<text font-family="Lucida Grande" font-size="13" x="522" y="773">
checkedCopy(T) : T</text>
<polyline fill="none" points="466,726 518,726" stroke="#000000" stroke-width="1"/>
<line fill="#000000" stroke="#000000" stroke-width="1" x1="506" x2="518" y1="733" y2="726"/>
<line fill="#000000" stroke="#000000" stroke-width="1" x1="506" x2="518" y1="719" y2="726"/>
</svg>
